<mxfile host="65bd71144e" pages="2">
    <diagram name="Deployment" id="vXDBUK7H-4tK57Y_UbAI">
        <mxGraphModel dx="537" dy="730" grid="1" gridSize="10" guides="1" tooltips="1" connect="1" arrows="1" fold="1" page="1" pageScale="1" pageWidth="827" pageHeight="1169" math="0" shadow="0">
            <root>
                <mxCell id="0"/>
                <mxCell id="1" parent="0"/>
                <mxCell id="CdDIdLdeYycKOqK319mR-1" value="IaC CI/CD Pipelines" style="fillColor=#CECFD1;strokeColor=none;dashed=0;verticalAlign=top;fontStyle=0;fontColor=default;opacity=60;fontSize=14;labelBackgroundColor=none;" parent="1" vertex="1">
                    <mxGeometry x="40" y="260" width="680" height="660" as="geometry"/>
                </mxCell>
                <mxCell id="CdDIdLdeYycKOqK319mR-2" value="Pipeline Repositories" style="fillColor=#CECFD1;strokeColor=none;dashed=0;verticalAlign=top;fontStyle=0;fontColor=#232F3D;opacity=60;fontSize=14;" parent="1" vertex="1">
                    <mxGeometry x="40" y="320" width="560" height="600" as="geometry"/>
                </mxCell>
                <mxCell id="FvHIyR7vi8E8eyAL5Enl-1" value="Foundation &#10;Terraform Modules" style="fillColor=#DFE0E3;strokeColor=none;dashed=0;verticalAlign=top;fontStyle=0;fontColor=#232F3D;fontSize=14;" parent="1" vertex="1">
                    <mxGeometry x="240" y="380" width="160" height="540" as="geometry"/>
                </mxCell>
                <mxCell id="FvHIyR7vi8E8eyAL5Enl-2" value="AWS Organization" style="fillColor=#f8cecc;dashed=0;verticalAlign=bottom;fontStyle=1;opacity=50;strokeColor=#b85450;fontSize=14;" parent="1" vertex="1">
                    <mxGeometry x="720" y="400" width="520" height="520" as="geometry"/>
                </mxCell>
                <mxCell id="FvHIyR7vi8E8eyAL5Enl-3" value="&lt;span&gt;Core CICD&lt;/span&gt;&lt;span&gt;&lt;br&gt;&lt;/span&gt;" style="points=[[0,0],[0.25,0],[0.5,0],[0.75,0],[1,0],[1,0.25],[1,0.5],[1,0.75],[1,1],[0.75,1],[0.5,1],[0.25,1],[0,1],[0,0.75],[0,0.5],[0,0.25]];outlineConnect=0;html=1;whiteSpace=wrap;fontSize=12;fontStyle=0;shape=mxgraph.aws4.group;grIcon=mxgraph.aws4.group_aws_cloud_alt;verticalAlign=top;align=left;spacingLeft=30;dashed=0;fillColor=#dae8fc;strokeColor=#6c8ebf;" parent="1" vertex="1">
                    <mxGeometry x="760" y="680" width="440" height="160" as="geometry"/>
                </mxCell>
                <mxCell id="FvHIyR7vi8E8eyAL5Enl-4" value="AWS Organization Management" style="points=[[0,0],[0.25,0],[0.5,0],[0.75,0],[1,0],[1,0.25],[1,0.5],[1,0.75],[1,1],[0.75,1],[0.5,1],[0.25,1],[0,1],[0,0.75],[0,0.5],[0,0.25]];outlineConnect=0;html=1;whiteSpace=wrap;fontSize=12;fontStyle=0;shape=mxgraph.aws4.group;grIcon=mxgraph.aws4.group_aws_cloud_alt;verticalAlign=top;align=left;spacingLeft=30;dashed=0;fillColor=#dae8fc;strokeColor=#6c8ebf;" parent="1" vertex="1">
                    <mxGeometry x="760" y="440" width="440" height="200" as="geometry"/>
                </mxCell>
                <mxCell id="FvHIyR7vi8E8eyAL5Enl-7" value="" style="sketch=0;outlineConnect=0;fontColor=#232F3E;gradientColor=none;fillColor=#B0084D;strokeColor=none;dashed=0;verticalLabelPosition=bottom;verticalAlign=top;align=center;html=1;fontSize=12;fontStyle=0;aspect=fixed;pointerEvents=1;shape=mxgraph.aws4.organizations_management_account;" parent="1" vertex="1">
                    <mxGeometry x="1160" y="440" width="40" height="42.16" as="geometry"/>
                </mxCell>
                <mxCell id="FvHIyR7vi8E8eyAL5Enl-8" value="assumes" style="edgeStyle=orthogonalEdgeStyle;rounded=0;orthogonalLoop=1;jettySize=auto;html=1;labelBackgroundColor=none;align=left;" parent="1" target="FvHIyR7vi8E8eyAL5Enl-10" edge="1">
                    <mxGeometry x="0.0662" y="-10" relative="1" as="geometry">
                        <Array as="points">
                            <mxPoint x="880" y="760"/>
                            <mxPoint x="880" y="601"/>
                        </Array>
                        <mxPoint as="offset"/>
                        <mxPoint x="856.3181818181815" y="760" as="sourcePoint"/>
                    </mxGeometry>
                </mxCell>
                <mxCell id="FvHIyR7vi8E8eyAL5Enl-10" value="idc_provisioner" style="sketch=0;outlineConnect=0;fontColor=#232F3E;gradientColor=none;fillColor=#BF0816;strokeColor=none;dashed=0;verticalLabelPosition=bottom;verticalAlign=top;align=center;html=1;fontSize=12;fontStyle=0;aspect=fixed;pointerEvents=1;shape=mxgraph.aws4.role;labelPosition=center;" parent="1" vertex="1">
                    <mxGeometry x="910" y="585" width="56.73" height="32" as="geometry"/>
                </mxCell>
                <mxCell id="FvHIyR7vi8E8eyAL5Enl-11" value="ref = main" style="edgeStyle=orthogonalEdgeStyle;rounded=0;orthogonalLoop=1;jettySize=auto;html=1;entryX=1;entryY=0.5;entryDx=0;entryDy=0;entryPerimeter=0;labelBackgroundColor=none;strokeColor=#9933FF;align=left;exitX=0;exitY=0.5;exitDx=0;exitDy=0;exitPerimeter=0;" parent="1" source="FvHIyR7vi8E8eyAL5Enl-13" target="FvHIyR7vi8E8eyAL5Enl-19" edge="1">
                    <mxGeometry x="0.7895" y="-10" relative="1" as="geometry">
                        <mxPoint x="461" y="730" as="sourcePoint"/>
                        <mxPoint x="340" y="865" as="targetPoint"/>
                        <mxPoint as="offset"/>
                        <Array as="points">
                            <mxPoint x="410" y="760"/>
                            <mxPoint x="410" y="700"/>
                        </Array>
                    </mxGeometry>
                </mxCell>
                <UserObject label="AWS-MA-IDC" id="FvHIyR7vi8E8eyAL5Enl-12">
                    <mxCell style="shape=image;verticalLabelPosition=bottom;labelBackgroundColor=none;verticalAlign=top;aspect=fixed;imageAspect=0;image=data:image/png,iVBORw0KGgoAAAANSUhEUgAAAucAAAG3CAYAAAAXYfuiAAAEtGlUWHRYTUw6Y29tLmFkb2JlLnhtcAAAAAAAPD94cGFja2V0IGJlZ2luPSLvu78iIGlkPSJXNU0wTXBDZWhpSHpyZVN6TlRjemtjOWQiPz4KPHg6eG1wbWV0YSB4bWxuczp4PSJhZG9iZTpuczptZXRhLyIgeDp4bXB0az0iWE1QIENvcmUgNS41LjAiPgogPHJkZjpSREYgeG1sbnM6cmRmPSJodHRwOi8vd3d3LnczLm9yZy8xOTk5LzAyLzIyLXJkZi1zeW50YXgtbnMjIj4KICA8cmRmOkRlc2NyaXB0aW9uIHJkZjphYm91dD0iIgogICAgeG1sbnM6dGlmZj0iaHR0cDovL25zLmFkb2JlLmNvbS90aWZmLzEuMC8iCiAgICB4bWxuczpleGlmPSJodHRwOi8vbnMuYWRvYmUuY29tL2V4aWYvMS4wLyIKICAgIHhtbG5zOnBob3Rvc2hvcD0iaHR0cDovL25zLmFkb2JlLmNvbS9waG90b3Nob3AvMS4wLyIKICAgIHhtbG5zOnhtcD0iaHR0cDovL25zLmFkb2JlLmNvbS94YXAvMS4wLyIKICAgIHhtbG5zOnhtcE1NPSJodHRwOi8vbnMuYWRvYmUuY29tL3hhcC8xLjAvbW0vIgogICAgeG1sbnM6c3RFdnQ9Imh0dHA6Ly9ucy5hZG9iZS5jb20veGFwLzEuMC9zVHlwZS9SZXNvdXJjZUV2ZW50IyIKICAgdGlmZjpJbWFnZUxlbmd0aD0iNDM5IgogICB0aWZmOkltYWdlV2lkdGg9Ijc0MyIKICAgdGlmZjpSZXNvbHV0aW9uVW5pdD0iMiIKICAgdGlmZjpYUmVzb2x1dGlvbj0iNzIvMSIKICAgdGlmZjpZUmVzb2x1dGlvbj0iNzIvMSIKICAgZXhpZjpQaXhlbFhEaW1lbnNpb249Ijc0MyIKICAgZXhpZjpQaXhlbFlEaW1lbnNpb249IjQzOSIKICAgZXhpZjpDb2xvclNwYWNlPSIxIgogICBwaG90b3Nob3A6Q29sb3JNb2RlPSIzIgogICBwaG90b3Nob3A6SUNDUHJvZmlsZT0ic1JHQiBJRUM2MTk2Ni0yLjEiCiAgIHhtcDpNb2RpZnlEYXRlPSIyMDIxLTEyLTE0VDIxOjI2OjU5KzAxOjAwIgogICB4bXA6TWV0YWRhdGFEYXRlPSIyMDIxLTEyLTE0VDIxOjI2OjU5KzAxOjAwIj4KICAgPHhtcE1NOkhpc3Rvcnk+CiAgICA8cmRmOlNlcT4KICAgICA8cmRmOmxpCiAgICAgIHN0RXZ0OmFjdGlvbj0icHJvZHVjZWQiCiAgICAgIHN0RXZ0OnNvZnR3YXJlQWdlbnQ9IkFmZmluaXR5IFBob3RvIDEuMTAuNCIKICAgICAgc3RFdnQ6d2hlbj0iMjAyMS0xMi0xNFQyMToyNjo1OSswMTowMCIvPgogICAgPC9yZGY6U2VxPgogICA8L3htcE1NOkhpc3Rvcnk+CiAgPC9yZGY6RGVzY3JpcHRpb24+CiA8L3JkZjpSREY+CjwveDp4bXBtZXRhPgo8P3hwYWNrZXQgZW5kPSJyIj8+8RxK0QAAAYFpQ0NQc1JHQiBJRUM2MTk2Ni0yLjEAACiRdZG7SwNBEIc/E0XRaARTKFgEiVZGokLQxiLBF6hFEsFXk1xeQh7HXYIEW8E2oCDa+Cr0L9BWsBYERRHETrBWtNFwziVCRMwss/Ptb3eG3VmwhFJKWq/3QDqT0wKTPufC4pKz8RkbbTjogrCiq7PBiRA17eOOOjPeuM1atc/9ay3RmK5AXZPwmKJqOeEp4Zm1nGrytrBDSYajwqfC/ZpcUPjW1CMVfjE5UeEvk7VQwA+WdmFn4hdHfrGS1NLC8nJc6VRe+bmP+RJbLDMflNgj3o1OgEl8OJlmHD9eBhmV2YubIQZkRY18Tzl/jqzkKjKrFNBYJUGSHP2i5qV6TGJc9JiMFAWz/3/7qseHhyrVbT5oeDKMt15o3IJS0TA+Dw2jdATWR7jIVPOzBzDyLnqxqrn2wb4BZ5dVLbID55vQ+aCGtXBZsopb4nF4PYHWRei4hublSs9+9jm+h9C6fNUV7O5Bn5y3r3wDLm1nzIO0lb0AAAAJcEhZcwAACxMAAAsTAQCanBgAACAASURBVHic7N15fFxV3T/wz/feSZp0oQv7Iq1YlpJmZrBCaTJNmgqi9WERDEuhCQKCuCRtAXF51LjjD6XNqI+CiiRpWVpQNkGBkiamLaA8ziQNCFYFRGTRFkqXLHPP9/dHyiNgaTPJ3Dkzdz7vl32B7cz9flIyZ745c+45ABERERERERERERERERERERERERERERERERERERERERERERERERERERERERERERERERERERERERERERERERERERERERERERERERERERERERERERERERERERERERERERERERERERERERERERERERERERERERERERERERERERERERERERERERERERERERERERERERERERERERERERERERERERERERERERERERERERERERERERERERERERERERERERERERERERERERERERERERERERERERERERERERERERERERERERERERERERERERERERERERERERERERERERERERERERERERERERERERERERERERERERERERERERERERERERERERERERERERERERERERERERFRHhPbAYiyLBQOV0xR1SkiOlHVGQM4xYAWu64pVh36d8ApVlUHkAHADIg4/SJmIJWSgVDI25FKYbPjOP/q7l6/GUDK9hdFRJQzmpqcuuLYZIzBvnBC+wI6Th2nWI0pdsQZo6LFUCkGAIgOiMoARAeMcQYgZkAcM2Ag/aGUvu5JaPO/3G2b729Y0G/5qyLKGjbnFAjHHHPCvmPGuIeLYKoxcrgIDgfkMBFMUZV9AZ0igimA7OND+ddUsRnAy4A+q4pnHUeeVfWeNQbPimz/S3d393Yf6hIRZVVt06riMZP2e7fruFON0amOyFSFTBXRqVAcBMi+ACZB4GS49A5A/6WQzVDdDMi/APxDVZ8F9DnAPKcaem7FkqoXAWiGaxNlFZtzyhvRaHRSKlV6bCgkZcbIsSJyjAimquJwEYyzne+dqKoCeBaQXgC9qkO/du58ceOmTZs4G0REOae2dpU7ds5+x8B1y6BSBtEyCMpUMV1EQrbzvRNVDAD4G0SfFcXTCn1CjfT2DZonVn+25kXb+YiGg8055aJQNFoxE8Dxqs5MERwLoAzAwZZzZZgOAkgC8pgxeFTVe6ynZ8NT4KwPEWVZXfODh0NCJ0Cd2QBOADBLRHJ20mNEFJsVeEKgTxjVXhX5fb/30h9WLz17p+1oRG/G5pysi0ZPnKbqngDIbEBPEMEsQEpt57JBFa+KaIcx0q7qPdzTs2Ej2KwTUYYturbj3SjCfEdQA5EaAIfYzmSDqqZE0A3FY8bIo8YdeGzl5q4/oqnJ2M5GhYvNOWVdOFwxE3De7zhao4o5InKA7Uw57BUAa43R33jewK96e3/Hj2WJKG3nx+/bxzFjTxFxPiTQGohMs50pV6liqwC/M9B2I2bN3zfj92ubanjjP2UNm3PyXTh8wruBovc7jsxX1fkicqDtTPlIVVUEv1fFPYC5N5nc8AfbmYgod9XH17xHNfRfAjkVgioARbYz5SNVbAXQqYI1JqVrVi6t5iea5Cs255RxZWVlxa67z3wR53RAThHBu21nCiZ9TlVXp1K4rbd3/e9spyEi+xY2dxxZJDhHFeeIyEzbeYJIgZeh+pAAd23pe/X+u68+/XXbmShY2JxTRkSj0UmeN36B4+jpAD4kIhNsZyokqviLiN6WSqVu3bjx0W7beYgoexZ+d81Ut8g9xxE5B5D32s5TSFQxANF2gd6lKe/u1qXv/7vtTJT/2JzTiJWVHX9QKFT8UUDOEEE1gJzdXquQqGoC0BtTKV3Z27ths+08RJR5tdetKh0TOvBMB7gIkBrh+7l1Cqio/t4Ad0lqcHXrFSc9bTsT5Se+mCktZWVl40OhiR8B5AIReT8A13Ym2j1VHRCRu4zxbuzu3vAAAO4+QJTnzl++9njXkYsFOBeQibbz0DtT6GNqdCUG+29tu+qUl23nofzB5pyGI1ReXnmy6+ICAGcAMtZ2IEqPKv4C4H+MwY09PV1bbOchouGb19Recvhk5xwIPi2Q99nOQ+lR1RQED0KxYsuWrXfe03TqDtuZKLexOad3VF4+5xgR5zIRLOR2h0GhOwGsHByUH/T2diVtpyGid7bwu2umhkKhyyG4WET2s52HRk+h2xT4hSquX9FYvd52HspNbM7pbWYVhcNjTheRT8rQwRQUXA+pmmuTyfUP2A5CRP9WF+84DpCroForIryXJ6BU0a3Aj/q2eCtWN9Vss52HcgebcwIAzJx5/Ltct/jjInIJgINt56Fs0iSAaxOJdbcB4EEbRJZcsHztyY7jfFaAk2xnoSxSvK7ACs/TH61cWt1jOw7Zx+a8wJWXV1S5riwF5L/AmzsLmqo+I6LfSiT6bwIeH7Sdh6hQLIqvPdVR5ysQzLKdhexSRRfEa27d3PELNDXxJv4Cxea8MDmRSOx0AFeLYLbtMJRr9FlAvjU4uOWm3t7eAdtpiIKqrrnzdBH9Mvcmp7dT6CYYfPe5V03L2qaaPtt5KLvYnBeQoZM7Jy0SwVUicrTtPJTr9Dlj8LXu7nU3AfAshyEKjEXNHQsc4JsQidrOQjlO9SVAml8z3o/uXFLzqu04lB1szgvA0UdXTigt1csBZzG4npzSpKp/BPDFZHLdL2xnIcpndcvWzoEj14hIle0slGcUr0P0hv6d/dfdevUHXrAdh/zF5jzADjtsTul++zmfBnA1IPvazkP5TRWPGeN9tqdnQ4ftLET5ZNGyjhni4NsicrrtLJTvtM+o/KhPtn17dcOCV2ynIX+wOQ+gsrKy4qKiyR8H8EVwppwyTFV/6Xl61caN6/9sOwtRLqv71kP7YnxRExSf4JaIlEm79ktf/rpnvsflLsHD5jxY3Eikok5EvgLIVNthKLhUdUAE8a1b+77xl788/prtPES5ZNal1xcdO3PGpwT4sgCTbeeh4FJgiyiuNQM7421XnbLddh7KDDbnAREOV3xUxPmmCI6ynYUKh6q+LKJXJxLrWwCo7TxEttUtaz8JjvsDEfCme8oaBV5WY775t1f1f9Y21fC8ijzH5jzPlZXFIkVFaAZQbTsLFS5VrPO8wU9u3Phot+0sRDbUXbfmULih60TkbNtZqJDpHz01S1Y01vzadhIaOTbneWr69OP2Hzdu7NcBfFxEHNt5iAB4xuj3Pe/VL/X29vIoaioItbWr3JLKAxeLgyaBjLedh2iI/mpQseTmxuo/2U5C6WNznndmFUWjJZ9Sla+IYJLtNERvp4q/iZjLE4n1v7KdhchPdfGO4wT4KQ8Rohw1qKrNnmz/+sqGBVtth6HhY3OeR2bOrDzZdREXkWNsZyHaG1Xcqmoau7vXv2w7C1Em1V63qrQ0dMBXAVkqENd2HqI9UeBlUfO5lsZ5N4H3BuUFNud54JhjTth3zJjiZSJYZDsLUTpUdbOq+XR394ZbbGchyoS65vYYxPm5QKbbzkKUprVeyvv4iqU1m2wHoT1jc57jwuE55zmO2wxgf9tZiEZKVX+hqpdzFp3yVe11q0pL3IO+6QCNEPA+H8pT2qdA03Obzfe4q0vuYnOeo8rKYocXFemPAFlgOwtRhvzTGPOJ7u71d9gOQpSORcsfni1OqFXArWopIFQTgHdJS+P8x21Hof/E5jz3OJFIxacA51si4J3/FDiqelNfHxqeemrd67azEO1Jbe0qt2TuAV8UlS/xhE8KGoV6UCzbsmXrV+5pOnWH7Tz0b2zOc8iu2fI2QKpsZyHykyr+6nneBRs3blhvOwvR7tTH17xHEWoTyBzbWYj8pMDTmvLOb1ta83vbWWgI7zLPEeHwnPNCIedXgPBUOQo8EUx2HOfCAw98l7700t+6wB0EKIfUNXcsFLj3ish7bGch8psA+4rjfCxySr2XPHHaOqxdy/HYMs6cW3bEEbMmTphQ8kMROd92FiIbVLV9YKDv/CeffPwftrNQYTu16Z6xkydP/IEIPmY7C5Ed+tvBgdSim698/7O2kxQyNucWRSKxmIiuAGSq7SxElr2i6i1KJjf8xnYQKkz11z1chpB7O8BzJKjQ6Wse8KkVDdUrbScpVGzO7XDD4dhXRfTzIsItuYgAqKoRka8nEl1fA2Bs56HCUbe8/QJx3OsBjLWdhShXKHCLh22f4Omi2cfmPMvC4YoDRORWEamxnYUoF6nqAzt39p3/9NOP/9N2Fgq2D8XvG7M/xjUL5DLbWYhykQJPSyp1ZsvS+b22sxQSNudZVF5eMcdxZLWIHGo7C1Fu02eN8c7s7n7kf20noWCqu27NoXCL7hDBbNtZiHKZqm5XmEvaGmtutZ2lULA5z5JoNPYpQJcBUmQ7C1F+0J2qelkyub7NdhIKlrrm9pjAuR0iB9rOQpQvVLX5uS3mSp4s6j825z475JBZY/ffv+R6EbnAdhaifKSK65LJrqvAdeiUAfXNHZdC5AcAOFFClCZVdBmDs1csqeLuWj5ic+6j8vLYEY6DO0VQbjsLUX7T+7dtS527adOjvDGJRqS2dpVbGjtomQg+YzsLUX7TF1VNbWtjTZftJEHF5twnM2fOqQiF3LsA7Gc7C1FAPGnMwIe7ux/7q+0glF9qr3lw4tjS4tUQOdl2FqIgUMWAEb2I2y36g9v4+SAcrjjXdd2HwcacKJNmOE7xo+XlFTxOnYZt4XfXTC0dO2YdG3OizBFBsQtZUdfc8RXbWYKIM+cZFo1WfFFVvi4i/Lsl8oEq+lTNou7u9bfbzkK5bdF17e9zXOde3vhJ5B9VtO3c8uIlq5vOHrCdJSjYQGbMrKJIpOQGEbnQdhKioBs6sAhXJBLrltvOQrlpUXPHAgFWicg421mIgk5VO3d6Oz+yeukHN9vOEgRszjMgGo1OUh33Cx4sRJRt+t1EYt1nAajtJJQ76uIdFwG4QSCu7SxEhUKBp03K+/CKpTWbbGfJd2zOR6ms7PiDQqExD3BHFiJbtDWRWHcxAO69S6iLd1wtkGts5yAqRAq8bAZTH1hxxfyk7Sz5jM35KJSVxQ4vKsJDAI60nYWokKnqPa+99vezn3nmmT7bWcieuuaOa0XkSts5iAqa6qtqdEHrknkbbEfJV2zORygSOeEooPghEbzLdhYiAlS1PZV69bTe3t5ttrNQljU1OfWTa34EkUttRyEiQFW3e/BOX9k4f43tLPmIzfkIzJw5O+y6oQeEOwAQ5Zr1W7fuXPCXvzz+mu0glB27Dhf6uQgW2c5CRG+i2g/F2S2Lq++2HSXfsDlPUzh84myR0P0imGw7CxHtjv4O2P6BRCLxqu0k5K/a2lXu2NhBKyA413YWIvpPqpoCUN/aWH2z7Sz5hIcQpaG8fE61SOghNuZEuUyOB8Y9eMQRsybaTkL+qa1d5ZbOPXAlG3Oi3CUiIYG01TV3XmI7Sz5hcz5M5eUVcxzHvVcE421nIfKDqg4ASKlqALYllPdNmFDy67KyMr5eg6ipySmNHXSTQM6xHWW0FFCFeqoYUG4JSkEkcCC4oX55R53tKPmCy1qGobw8Nst1sQYAZ+IosBKJriK8dTtCt6yszN2+fbuzzz77uP39E5zS0u1uX1+xm0oNOmPGhNxUqtgpKhpwQyHX9byQk0oNukVFIcfzUq7jOK4xruO6KdcY13EczzVGXNd1HWM813EcxxhxHce88U9X1XFExFU1b/xzN48TV1Xf9jhxRdRRfePP4A79vrchmdzwG1t/p+SPhcvaoyHHOQMQT6FGAE+hBioeHPFgjIGI58jQ7xnF//27whjZ9TgVM/QcOAbqeVDxVBwj6nkKx8D1PE05Bq54op5n4BhRxzPwjKjjITTomQHXSJHjFUnK9HuOB+N4xZIyO1OOVyIDRgZdb2up641zdxqn3/X63NcMtsJDL7zVq882eFNDXtfc8YSIzLD4V0vkG4V6avS8tsXzVtvOkuvYnO9FOFwx03FkLSD72s5C5KdEYmcx8Pig7RxEhYrNORWAQQNzVlvDvHtsB8llXNayB5HICUeJyENszKkQlJX18Yd1IotEOGFGgVfkqKy+YPnak20HyWVszt9BOHzCu4HiNdwukQpFf38/GwMii1SFr0EKPpExruPcWb+8o8p2lFzF5nw3ZsyYdbBI8RoRHGY7C1G2pFIpNgZENnHmnArHWIjcW9/88CzbQXIRm/O3CYfD44qLS+8VwbttZyHKplTqYDYGRBaJKl+DVDgEEyDuvQu/u2aq7Si5hs35W7ki+9wmgvfaDkKUbcYMsDEgskg5c04FRw4KFYXuP2NZ+yTbSXIJm/M3iUZj3xfBh23nILJhv/0G2RgQ2cQ151SARGTGRNf9ZW3TqmLbWXIFm/NdotHKqwBcbjsHkS2e57ExILJIuL0xFa55pZMP+pntELmCzTmAaDRWq4rv2M5BZFMqNYmNAZFFKlxzToVLBBcsind83XaOXFDwzXl5ecUcVbSK8ONEKmyex91aiGwS5cw5FTYH8t+LlnVeaDuHbQXdnJeVHX+Q6zp3iKDEdhYi24xhc05kk3KSiAiOoz8+f/na423nsKmAm/NZRaFQ8WoAB9tOQpQL9tmHa86JrOLMOREgMibkyB218fv2tx3FloJtziORku+JSMx2DqJc4Xnj2RgQWSRcc060i7yrFONura1d5dpOYkNBNufRaOX5IvIZ2zmIcokxnDknskk5c070fwQyv3TuAd+2ncOGgmvOZ86cHQZwg+0cRLmGWykSWcfXINGbCJyr6uLtH7WdI9tCtgNkU3l5bLLj4JcAxtrOQpRrOHNO2RCJVCwFnBpA9e1/JoL/+L1ddvv7qvJOj3+ny6T5+N3foPm25Sey68piDH7c07PuvvRqvPm6vCGU6D85P1+0rKO3bUn1k7aTZEtBNeeOgxtFcITtHES5yBjDxoB8FQ5Xfl5EvjX0/0b/7ZZ+K5upb/H/vI4I4Dj6wGiuqqrsz4neRiDjxcHt85raZ61tqumznScbCqY5D4crLxHBGbZzEOWqsWNLM9YVnL987fGizqGOA1UxRoy765+qKo5xHFX1HOM5qi6MMUbVFcd4u/5cHFUVYxwTUgPPOEZVxTWOq2oGPeO4IVXxjOOpGnFNyjNaJCGTChktkpQZ9IrVIGUcz6iRkHGLjHo7B02ouEQ9GTChQU9TUmyKBjxNyRizoySl49yd5vWdgzrRKTGvbh/Q1zHelE7ZqS9v/JuZcMhRuhYdBk1NineYxaU9i0RiV4vgW7Zz+ElVR7VUVITLWoh2S3Ds4VOcawEUxP2CBTEQzJgx+8ji4qI/iGCc7SxEuSqVGjxo48ZHX8rEteqaO1tFZFEmrpVrVNHc2jh3se0c+SQarfgs4AT+FGZjsLi7u6t5pM+vb+54ESIHZjITUZCoZxa0Lpl3v+0cfiuEG0JDY8aEVrIxJ9ozVS5rGQ4RNNYv71xmO0e+CIcrryyExhwAREY3c85DiIj2TBz5eSHsfx745jwSqfgKIAV90hTRcHDNeRocWVzX/NvltmPkukikYqnjyLW2c2TP6PYpF26lSLRnIgeO1XE/sx3Db4FuzqPREytFnM/bzkGUD4wpYWOQBhE01sU7v287R66KRisXizjfs50ju5xRvYZ0lM09UUEQObVuecdltmP4KbDN+fTps/dRdVcAKMjTpYjSVVLCmfN0CeTT9c2dP0KB3L8zXOFwRQMgBbf0R3WUzTVvCCUaFnHkuguWP3y07Rx+CWxzPn580TUiMs12DqJ8wTXnIyTyifrm3/4ETU2BHU/TEYlUftpxnBHfFJnPHGd0zbUo15wTDdNYR0I/RUAnRgL5ZjJz5pwKVf2E7RxE+YRrzkdBcHHd5PkttbWrCvqTunC44pMiUsBLfUY3c66cOScaNhHE6pZ3XGo7hx8Ct895WVlZses6N/AkB9oND8BmVd0MyKuA7gBkhwh2quobBxuIiDiAjlPFBBFMALC/qhwkgjEWs/tOdQxfM6MgIheUxg4qmTX5+oWP33DZoO082RYOV1wuIj+wnSOfiaqM4GSlvKGqKRF5WVVfAmQrgNcF2Aaop3jjtFctBmSsAKUqOlZUJkJ0iqpMEUGx1S+Aco44+M4FyzrvXrGk6h+2s2RS4JrzUGjyZ0VQZjsHZZeqKoAXAPxJVf4E6DOAPA94fwec5x1n+0uJROI1jOIAmbKyOVNCIUwVcacbo0eKyDEiiAA6A5CiTH0ttnDmfPRE5KNlZTPGTmhqP6tQTrIDgEik8jIAPyz0SRHV0d0QGog15woD6J8hklDVJ6Bmk+dgkzHeX295tesVNDWZkV66tql9fNFE74AiKToMqoeqOIfB0cMBHCkqR6roVIEU9KdXhUcmOg7iAGptJ8mk/B8I3iQSOeEooLg76DOchU4VWwD9A4CkiHaravKVVwaeeuGFx3fYyDP0ac2EmSJuhYhUqCImgnfZyDI6qXcnEo88k4krBfkQouFQRfvOLanTVjfVbLOdxW/RaMXHVeX6Qm/MAUAVn0smu0a8p3tdc+drItgnk5n8ptB/QdEFwQaT0vXi9f9v21WnbLeRZdal1xcdO+OY6SIIq2jEEQkDchyAQ2zkoewxMKe1Ncy7x3aOTAnUYBqJVLaLyDzbOSjjnlTFbwHziDG6oadnw1PI8SPUZ8yYfWRRkXuS48gpqnJSPhyCZczAEd3dj/01E9cq9OYcAKB4ZHAHFtz8+blbbEfxSzhceYkIuIxwF1V8Ppnsumakz69v7tyKoaV0OUtVUxB0qupv1DgPrVhS9Qfk+Hh87vc63jUmhDlQzIGgUgXv5Qx70Ojfdmw2xwZlQiQwy1oikdhFIphnOweNnipeFNHfqOqavj5Z89RT616wnSldTz756J8A/AnAj6ZNm1YyYcKh8x0HZwJylggm2c63O6rFbLAySXBiaKyuPW/5Qx+4ZfFJL9mOk2mRSOwiQNmYZ5CKSk6ubFHtB3AvjN6xFXr/nUtqXrUdKR23XlH9NwB/A7AKAM5Y1j5pPDDPdZyTAHwAIkdaDUgZIO8aO8X5JoBG20kyIQdHgfRNnz57n/HjizYBCPyRrkGlqr0iuNsY767u7kceQ47PxIzU9OnTx4wde8B/icj5gCzIpSVYqZSZvnHj+j9n4lqcOX8T1T8p+k9qbTz5OdtRMiUarbhQVX42dPM0vWG0M+d1zR3bRCQ3PmVTGIV2qGJlX9/A7as/d/JrtiP5ZdGyjhni4jQAp4vKbEgwd7ILOoV6kvIiLUvn99rOMlqBmDkfN67oC2BjnndU8VdV3Ox5gzf39j76hO082bBp06Z+YNMdAO6IRqOTgLG1gHwckONtZxv1ASq0eyJHCsZ0XbD84ZNXLJ7/lO04oxUOx+pUlY25D3LhUwhV/FlhbjCiN69sqHnedp5saFtS/SSAJwF8p+66NYeKGzpPgYUicpztbDR8AnHhhr4L4EO2s4yW9YFgtKLRE6ephv6YSzOQtCe6Q1Vu8zzvpxs3blhvO02uCIdPnC3ifgZArYhY2S6sv3/wqF3LcUaNM+f/SYGXU17qlJuX1CRsZxmpSKRiESA3sTHfvdHPnHfuEEFpJjMNhw797wHjyfdXvPbw/aPZUSVIFi3rmCEOLgJwoYjsZzsPDY8x+GDb4qrf2M4xGnk/wKq617AxzwtPqOpntm7tOySZ7LqIjflbdXc/8mgyue4Cz0sdrqpfVsWL2c5QXMyZcz8JcECR6649f1lnpe0sIxGNVp7PxnzPRvvpk0h2X4MK3QZoHIMDx7Q2VH9wxZKqX7Ex/7e2JdVPtjZWX/WKbD8MnlkI6G9tZ6K9E9Hv5vuBcHm9rKW8vGKOiJxjOwe9M1VtNwbf7elZdz8Cuo48kzZufPQlAF+fNm3atZMmHXaxKq7O1raMqkVszn0nE0MuHqhb9tvTW5fMfch2muEKh+ecB0iLcC2uvzRbO53ra6oa3+n1LV+99IObs1Exn93fsKAfwC0Abll0Xfv7xHWuguAs7viSm0RkZmnlgZdgNa63nWWk8nqgdRy5znYG2j1V3Ol5eF8yuW5+T8+6+8DGPC3PPPNMXyLR9cNUast0wFyqioxscUg5Yaw4em/98o7TbAcZjnC44lzHcdsAsBHxmfp8PKhC/wXol3bsGJja2jjvy2zM09e2tOb3rY3V52g/joTqjwEU3GnAecGRr532nbtyelvSPcnb5jwcrjhXRE60nYPeTu8basq7PtLT0/W47TT5rre3dyCRWP+TZLLrKFVcrIq/+VVLlSeEZo3IGBW5Y1Fz57m2o+xJJFJ5tuM4K8DGPCv820dRXzOq/71zs5nW0lD9jSDvvJItbVdV/7Wlsfryfs87SlVvVNWU7Uz0bwIcMKlk0hds5xipfG3OQyLON22HoH9TxWOplFeZSKz7MJtyX6SSya4bt29/8UhVXDl0SmpmcbeW7BKRkANZWRfvuMh2lt2JRmO1IrISbMyzJtOvQVUMAPq9HamdR7Q1Vn8zKAe05JJbl9Q809pYfXEKOFZV77Kdh/5NBIsvWNZ5sO0cI5GXzXk0WnGBCI6wnYMAQF8wBvXJZNeJvMnTf5s2bepPJru+l0p501URB5Cx2RrXdfNyPMhrAgdwflof77zcdpQ3C4crzgJwM/L8vqRsE5HRLd/L4My5Km5PmYEZLQ3VV3L5iv9ubqz+U2tj9RkpTZ0EaI/tPAQAUuKKftZ2ipHIxzdjF5Av2g5B8FRxnTGvH9Xd3dUKrinPqt7eDZuTya7GVCoVBpA3NxbSf5Kh//1PXXNHTpxsF4nEPuI4zq1gY551oqNfc66qG1XN/NbGqtqbl5z0l0zkouFb2Th/zY7fvnScqi5W1e228xQ6FbnsvOUPHWg7R7ryrjmPRCoWAjLddo4C1z04aOYkk11XdHd3c/CxaOPGR55MJLpOBnA2oC+M5lpc1mKXiLO8vrnjSpsZotE5Z4jobWBjboWOYuZcodtUzRXPbTHH21NBtQAAIABJREFUtTbOa89kLkrP6tVne62N1c2pwVQZFL+2naeQiaC02Cm6ynaOdOVbc+4Czn/bDlHAPGNMUyLRNau3d/3vbIehf0skulbv3IljVPUHqjqifYrZnOcAca6ti//2ahulw+HK0wBnFSBFNurTG5+ipE+hd3swM1ob5123tqmGNybmiJuvfP+zLY1VH1LVC6F43XaewiWX18bvy6tT5POqOY9GK88VwVG2cxQiVfzV88zc7u71X0UG1zlT5jz11LrXk8l1nzFGYxg6ijotxnDNeS4Q4Jr65s7PZ7NmOBw7VQSr2ZiPWlaX9ynwsjHm7NaG6tNXNtQ8n83aNHytjdUtg2YgCtVHbGcpUGPH6nirn0qmK5/ejB1VcNbcjlu2bx+M9vSs32A7CO1dT8/6Ddu2vXicKr4DwLOdh0ZA5FvZatCj0YoPi+jtIlKcjXr0jtKaNVfobYMDXlnb4nmr/QpEmXPzkpP+8uwWM9dAv6G8RyvrFPqp877bvp/tHMOVN815JFJZKyLH2M5RYFKALkkkuhZu2vToVtthaPh27eryuVTKqwL0z8N5TlER9znPJQr50sLvrpnqZ43y8soFqvILNuY5oKlpeK8/xWY1em5rQ/W5t1xZ80+fU1EGrW2qSbU1VH8JxjsNUO41n0UiMi5UJEtt5xiuvGnOgfz5Sw2IVwCcnEisW247CI3cxo0b1g8OvhpVNTfu7bFcc55LtM+od/rNV77/Wb8qhMNzPug4bMxzRW3vsXt9/Sn0YfUGw62Lq2/LRibyR+vimnt1cPAEKJ6wnaWQOHAuq71uVantHMORF815OHzibBGcYDtHoVDVP/b3m+MTia61trPQ6PX29m5LJtdfrKrnAHjH2Ro257lC+wA9fcXieQ/6VSESmXOKiHunCMb4VaMQiZgRL1d4pWz/d3z9qWpKVT/f2lB9UuvS9/99pDUod7RecdLTW/q2nAhV317n9DaCKSXOARfYjjEcedGcO47bYDtDoVDFulTKVD755HrfZuzIjmRy3SrPw3sB7PYEV9UQm3PbVPuNwRktDdUP+FVi5szKkwE25rnm9Ree3u3rT1WfN0B1a2P1NeBa5UC5++rTX9/Y+8cPq6LNdpZCISJ50U/mfHM+Y8asgwHU2s5RCFRx52uvPX9Sb+8GniYXUD09XX/Ztu3FSlXc8PY/48y5Zar9HuSMtsVVv/GrRHl57CTXlbtFUOJXjcI28hNCjzhk8n++/lQfHBw0x61orObpywH1+A2XDbY2VtWr6jW2sxQCEZm5aFnHfNs59ibnm/Pi4pJPcHsv/6nqqmSyq/aZZ57ps52F/LXrZtHLjNFLVNH/xu+zObdItV+N+ciKxrm+HVgSDlfMd11lY56jtk0Z/5bXnxr9TsuW9g/yps+CoK2N1Z83MF+xHaQQiIOcnz3P6ea8rKysGMBltnMUgFuSyXULwf3LC0p397qfqeo8VbwIAKEQm3MbVDHgGZzVumTe/X7ViEQqaxxH7gEkL26GKkQ7N5cKAKhip1HvvNbF1Z9DU9OIDhSj/NTWMO9rRpVbRvtMIKcuurbj3bZz7ElON+eh0MRzRORA2zmCTBW3JhJdi8D9sAtSd/e6Rzyv/wRV9HDmPPtUMQDFWSuWVP3KrxrRaGyeCO4FZKxfNWiIMSNfE77/Pq8IVF+Ch3ltjTW3ZjIX5Y+2xupvAvol2zkCTeA4Y/Ap2zH2JKebc8D5tO0EwaYPJpM768DGvKBt3Pi7v23fPhgzRp+xnaWQqGJAxfto6+K59/pVo7y8okqVjXk++Msft6TMAOa0Lq16zHYWsqulofobgMZt5wg0xcW5vK1iyHaAd1JePqec2yf6SX8/OPjqmUDvoO0kZN+uQ6Z40FT2DIqa2tbGeff4VSAcrpwrIveJYJxfNeitREZ+Q+jjN1w2+Djw10zmofzV0lC9uL658wAIzrWdJZBEJo0JHXgmgJW2o+xOzs6cizgX2c4QVKr467ZtOxb09vZus52FqAANqmpty+Lqu/0qEInEYmzMifKa7tjyYj2AtbaDBJUD5GyfmaPN+awix5G82Cg+36hiuzHe6Zs2/eEV21mICtCg5+nZrY1Vd/lVYObMORUA7hfBeL9q0DsZ+SFERG+3uunsgYEBrxbKJYf+kJpcvTE0J5vzSKTkVAD72c4RRKrmwp6eDT22cxAVoEFV75wVS6ru9KtAeXnFHNd1fs3G3JaRL2sh2p1brqz5p5fyzgCww3aWoBFApBj1tnPsTk425wAW2g4QTPrt7u71t9tOQVRoVDVlPHNua+O8X/pVIxyuPNF15dciMsGvGkSUfSuumJ9Uozm7BCOvCc63HWF3cq45P+KIWRMB+bDtHMGjGxKJddyeiSjLVDVlFOe2Lan+hV81IpE5JzgOfgPIPn7VoL0TGflWikR70rq4+jYFfmI7R9AIZPr5y9cebzvH2+Vccz5hwpgzeYJdpulWwFsIbplIlFWqmlKVhSsWV93hV42ysorjRdwH2JgTBduWza8tVsVTtnMEjSuSc7PnOdeci8h5tjMEjefJ5YnEI8/YzkFUSBTqCfT8tsVzV/tVY+bMyveFQs4DACb6VYOGzxiuOSf/3NN06g6InqeKAdtZAuZsNDXlVD+cU2HKyuZMAaTGdo4gUdVf9PR03Ww7B1EhUagHo+e3NFav8qtGeXlsluvKgyKY5FcNShd3ayF/tTZU/wHQb9nOESQicnDd5OoK2zneLKea86IiOQ05fDBSHnqtrw+fsR2CqJAo1FPFBa2Lq2/zq0YkMuc4xwEb8xzDNeeUDTu3vPRtKJ6wnSNIRJ2zbGd4s5xqzlXlTNsZgkRVP/fUU+tesJ2DqFAo1BNPFrU1Vt3qV41otCIKOA+JYLJfNYgod61uOnsgZVKXKvjDYKaoIx+xneHNcqY5LysrGw/IB2znCA7dkEyuu952CqJCoVAPqnUtS+be4leNsrJYBJCHRGSKXzVoNLjmnLJj5ZL560SVu7dkiABT65sfnmU7xxtypjkPhSafLIIxtnMEhTFYCv5UTZQdCgODC1sbq327v2PmzNnhoiJdA8i+ftWg0RFhc07ZYwb6vgTF67ZzBIXC/S/bGd6QM825iC6wnSEoVPW27u51j9jOQVQQFMYAF7YurlrhV4ny8jnloVARG/McZwxvCKXsabvqlJcBfNt2jqAQIGfO2MmZ5hwAm/MMUEW/iPc52zmICoLCQM3H2hrntvlVIhKpLHNddw2A/fyqQUT56dkt3jJVPGc7RxCoyPvOW/7QgbZzADnSnEcic44D5BDbOYJAxPyYe5oTZYHCKMxFLYurW/0qEYlUlgF4GMD+ftWgTNEdIvp72ymosKxtqumD6Fdt5wgCASSkxR+ynQPIkeZcRE62nSEIVNGvqtfazkEUeApjjF7c2ljd4leJmTNPnAFgjYgc4FcNyhTdYYyemkxueMx2Eio8vRv/2KbAs7ZzBIE4mhP9aE4054CcZDtBMOjPk8kNf7edgijIFFAV8/G2JVU3+VWjvHzOMa7rtotITnzESnuiO43RU7u71z9sOwkVpsdvuGxQFdfYzhEEArzfdgYgB5rz6dOnjwEQs50j/+ngwIDyxUk5QSDNCmyxnSPTFFA15uOtDdU3+lUjHK482nHYmOcH3WmM/hcbc7Ltn7Lt56rKybnREjlwUXP7TNsxrDfn48cfNAeQUts58p/c/uST6/mxFuWElsa5jxtPTwpSg66AQvXStsXVP/OrRiRywlGOI+0iOMivGpQpbMwpd9zfsKAfgu/bzhEEAsf67Ln15hzAPNsBgiCV8n5gOwPRm61YUvW/gHk/FJttZxmtoRlzvay1seqnftWYMWP2kSJF7QAO9qsGZYruNMZwKQvllMEB8zNA+2znyHciMs92BuvNuSqXtIyWqiY2btyw3nYOordrbaj+g5canK+q/7SdZaR06PbPy9sWV/l2Gl9Z2ZzpxcWhdu5alQ/eaMw3rLGdhOjNbrmy5p+quM12jrynqLQdwXZzHgJwouUMeU8VnDWnnLXiivlJz9P5CrxsO0u6FFBV/WTr4urr/aoxc2bFe0Iht11EDvWrBmUKG3PKbeoZ9gOjJdj/guUPH20zgtXmfObMyqgIxtnMkO9UsR14/VbbOYj2ZOXS6h4PWgPoi7azDNcbjXlbY9WP/apRXh47wnWddhEc5lcNyhTd6XlyGhtzymVtS2t+r4pu2znyncC1uqrDanPuOFphs34w6J3d3d3bbacg2puVDVVP6KBUq+rztrMMi8Gn/WzMw+ET3u262i6Cd/lVgzJlqDHv6el6yHYSor1SrLAdId+JwGp/arU5F5HjbdYPAmOw0nYGouFqvWLu0zqgVVB9xnaWPTFqPt26eO7/+HX9aPTEaY5T1A7I4X7VoExhY075xXO8W6AwtnPkMxFY7U9trzlncz4KqvpyT8+6B23nIEpH21XVf02JN1ehT9vOsjuq2tDWWP1Dv64/Y0bFVFW3HZCpftWgzFBFXyqF09mYUz5Z2VDzvEI7bOfIZwoce2rTPWNt1bfWnE+fPnsfAEfZqh8EInIHgJTtHETpWtlQ8/ygGahSxUbbWd7MGDS2Nlb5tldwWVns8OJip11EpvlVgzJDFX2ep6dt3MgJEMpD3LVlVATi7jNx3HG26ltrzseNC80SEbFVPwg8T++1nYFopG5ZfNJL2N4/D4rHbWcBAFWzuG3x3Lhf15858/h3hUJoF8G7/apBmaGKPsCczsac8pXnmF/ZzpDvXMd9n63aIVuFVSXM1nw0dMfrr/+dB2C8TTQacwBMATAJwFYAmxOJLn66kKNav3DSv86P3zc/hPH3AWJvb1mjS1sXVzf7dflwePZhjhNqB3CEXzUoM95ozJPJ9Q/YzmJLfbzzP8bRloYqjqN5ZGVDzfN1zR1/EBFrs7/5TyK2KltrzkVM2P6S97z20DPPPFPQJ4FFo7EpAD4AYAGAMIADAewPwH3b414D8CKARwF0AvgtgD8lEl3qU67JANLZFzueSHR1+ZElH6xsWLD11KZ7PjBl8qQ7ITg52/VVcUXr4qplfl0/EplzqIjTDsh7/KpBmVGIjXl9vHNY42h9vHO342hLQ5Uv42h9vDPdcXS4+gH8602/XgHw+5aGqr/6UMsyvRdgcz5SMvR6sFXbjmi08jGAu7WMwmWJRNcNtkNkWzQaKwLwMQB1AOZg5D/h/QlAHMBNiUTXtgzFAwBEo7GDAbyQxlPOTyS6bs5khnz0ofh9Y/bX8beJyOnZqmmMubJtcfX3/Lr+0UdXHlJaKmsBHOlXDcqMocbcOyOZ3PAb21n8Vh/vfGMcXQSgAhkYR1saqjI6jtbHO9MdR0frWQDtAB4G8MtMfz02LFr+8GzHCT1iO0e+UsXO1i0Pj0dTU9Z3vrE1de0AKLNUOxD6+wfbbWfIpmg05kSjsbMB9GJoNqUSo/v+PRLA9wE8H43GrolGYzwMy7L7Gxb0P7fF+6gqsvKDihr9rJ+N+YwZsw4uKZF2sDHPearoL4TGvD7e6dTHO988jsaQoXG0Pt55TX28M5/H0akALgTQCuDZ+njnf9fHOyfajTQ6fev++XuF5v0PGbaIoLRuQmy6jdpWmvPy8tg0QKxtUZPvVPHik08++ifbObIlGo3NBPA7ALch843ORABXA0hGozF7a54JALC2qSbVumXNIoX+xM86RvXq1sVV1/p1/bKy4w8qLi5pF+GOVLlOFf2qBdGYZ2UcrY93BmEcnQLg6xhq0j+/aw1+3lm9+mwPivW2c+S1UMjKRLKVbzgRj29YoyCC39rOkC3RaOxUABsAvNfnUu8B8Ntds+h5ORAHRlOTaW2outSo+rIOXIHPtTVW/T8/rg0MNeahUHG7iBztVw3KjDca8+7uDb+2ncVP9fHOrI6ju2bRgzCOTgTwLQB318c7J9kOMxI6dH8AjZSIlX7V0ovHzhcbFKoa+BdbNBqTaDT2WQB3ARifpbKCodmf69mg29fWWLXUAN/I6EVVv9DaMPc7Gb3mm8ycOfvAoqIxD4vIMX7VoMxQRb8x+pEgN+b18U6pj3daG0cD0qADwIcBPFYf7zzWdpB0qRf8fsFXaufTTysvHMdxOKM0CqpeIXxM9W0A34Gdm5YvAfAjNuj2tTXM/ZKq+XwmrqVGv9jSWPXtTFxrd8LhigNCoaKHAczwqwZlxq7G/MyennX3287iM+vjaIAa9CMBPFAf79zXdpB0PL9Vf6eq3AZzxApq5lx5g9SI6eCOHf/stZ3CT9Fo7BQMzbzYdCmAr1jOQABaG6uvMQaNCoxiyzbzpdbFVd/KXKq3mj79uP1F5GEAeTezVmje1JjfZzuLn+rjnRxHM+9QAD+rj3fmzSkta5tq+gD80XaOvGXpviFby1qm2akbBPLkpk2b+m2n8Es0GjsAQIvtHLt8MRqN+b1Gk4ahbfHcuCg+MZIGXVW/3NJQndnlMW9y1FGz9hs3btwaEeEOVDlOVQdEzFkF0Jjn1DhaH+8M0jh6OoBP2A6RHknYTpCvBDjg1KZ7sr6BiY3mXFRxuIW6AaGBfZHtWkZyE4YOwcgFLoCfR6OxYttBCGhpnHsD1HwMimHvOauKptbGqq/7lemYY07Yd+zY0jUiKPerBmXGUGOuZyYS6wN9rPmuZSQ3IcfG0fp4Z5DG0et27X6TJ8wfbCfIZ+PHj896z5r1E0JnzJh1kAjGZLtuUKgisM05gE8B+NAIn9sLYBWALgwdXLEZwGEAjsLQWsGPABjJSWlhAI0AfNt2j4avtbG6pa65YxCQVoG4e3qsqvlqa2P1V/3KcswxJ+xbUlK0BhZPkaPhUdUBwJyVSGwIdGO+S6GOo/cBeHIvjxmHodNPDwUwC0DRCGuVALilPt75vpaGqpz/JFuNJPY8WtKehELuVGR5aVDWm/OiopKp2a4ZLOYJ2wn8EI3GBMDSETz1HwA+kUh03b2bP3sZwP/uuv43ASwE8E0g7U9uGqLR2LJEoos31eSA1sbqm+ubO1IKrBSR3Y9hRr/Wuri6ya8MZWVzpoRCzkOARPyqQZmhqgOq8tHu7g332s7it11roUc8jrY0VO1xHK2Pd45qHK2Pdy5raajyaxxd2dJQNewDzOrjnfsAOBlDf18VI6g3E8AHMbQTTk5TyN5+aKE9EOi0bNe0sKxFD8t+zeBIpfBn2xl88l4A09J8zu8AlL1DY/4WiUSXSSS6VgA4BkP7/abjMACnpvkc8lFLY/UqCM7b3S4EBvhGy+Iq325CKy+PTQ6FnIdEJOpXDcqMfzfmXffYzpIlIx5H36Exf4uWhirT0lAViHG0paFqa0tD1R0YOiV1IYCtI7jMRzKbyh8rllT9A8AO2znylTrIet+a9eZcRA7Kds0A8Xp7B561HcIntWk+/ikACxKJri3pPCmR6NoJ4CwMfWSbjk+l+XjyWWtD1e1q9BwAg//3m2q+2dYw90t+1Swvj012XTwoIiP5aJ+ySgdVUVtAjTkwwnG0paEqrXG0paEqMONoS0OVtjRU3QLgJABp/T0AOLU+3pn1FQgjo0Gd2POdqGa9b816c67K5nykVPEc8Pjg3h+ZX3Ytaflomk/7TCLR9c+R1Eskuv6BoRkPL42nvT8ajfF7N8e0Lan+hap3DoBBo/rtlsbq//arVjQaneS6+gCG1qpSTtNBz9Pa7u51e50NDopdS1rSHUcbWhqqRjSOtjRUjWgcrY935uQ42tJQ9Tuk//c3BUCVD3F8IGzOR8wJfnMukv2fQIJCJLBLWiIYOvZ5uLoBPDSagolE12MYuoEoHXNHU5P80do475dIDR7X1lj1Bb9qHHHErInAuAcAeZ9fNShThhrznp71Ob8WOMPSHUd7ADw4moItDVWBGkdbGqoeBvCLNJ92ph9ZMo8z5yNmoW+1sOacM+cjpYq/2c7gk1PSfPytiUTXKA6k+T83pvn4nH1TKXQtS+f7djDX9Omz95kwofQBQI73qwZlig4C5uwCbMyB9MfRW1oaqjiO/qcvpvn4M3xJkWEG8rztDHlLUQjNuebV0be5RV+yncAn6X5PPJahur/C0E4Ew5XrbyqUYdOnz95n3LjQb0Rwgu0stDc6qCrnJBIb7rSdxBKOoxnQ0lD1RwDPpPGUQ+vjnSPdkjFrHM8EtX/IAsl632rjRobJFmoGRToDYD6ZkObjH89E0USiazAajZ2D4e9uYKLRmGRo1p5y3NFHV04oLcWvATnRdhbam6HGPJns+qXtJBZZGUdbGqoG6+OdaY2j9fFOydCsvV/aAXwsjcePBfCaT1kywkBesnQkfN4TQemH4veNub9hQdb2tGdznkeMkaD+5Ds+jcc+m0h0vZqpwolE19pMXYuCY6gxl18DmGM7C+1VShXnFnhjDqQ5jrY0VGVsHG1pqFqbqWvliEcQsObcUe8lOy1fMIzvK50M4MVs1bNwQyib85ES8YLanKcz47PZtxREAMrKysaXlOA+jOxgEsqulDHm3GRyXbo38QURx9HMSfcHl7G+pMiggeBO7mVFSZGT1d41q835IYfMGgtIzq/NylUigR1Q03lTGclBEUTDEg6Hx4VCk+4TkZjtLLRXKWPMed3d6++wHSRHcBzNnO1pPj7nm/PUo6+ku4c7vYlxzcRs1stqcz5+fO5/A+c2L90BI1/wTYWsC4fD4xxnwn0iktM3rBEAIAVgYXf3+tttB8khHEczJ3DN+erVZ3uA9tnOkbdUx2WzXFab86Ki0pz/Bs5tblCb83TWSvJNhTLukENmjRWZcC8geXKgSEFLAViYSHStth0kx3AczZx0j7rPi95G0/+hg3ZxxMnqf+OsNueO4+XFN3CuEtkZ1BcWZ3zImkMOmTV2//1L7hWRebaz0F55qno+G/Pd4jiaOYGbOQcAqAS1h/CdGMnqf+Ms37rrZvVjgaBJJAI7c843FbLisMPmlO67r3OPiNTYzkJ75anq+cnkulW2g+QojqOZE8zmHLodENsh8pODrPavWW3OVb0xgJvNkkGSAh4ftB0i06LRmIBvKmTBYYfNKd1vP/duAPNtZ6G98owxF3R3r7/NdpBcVB/v5DiaWYFc1iKCnbYz5CtVKc5mvaw2547jsDOntytBesur+KZCozZt2rSSSZOcuwCcZDsL7ZVnjLeou3vDrbaD5DCOo5kVzJlzFeXE+ciIZrdfznJzLmzO6e3SPdXudV9SUMGYNm1aycSJh90J4GTbWWivPM9DXU/PhltsB8lxHEczK90Z5vxozmnkRLPav2b1hlDP4/FU9B/SXce1zZcUVBCmT58+ZuLEw34pglNsZ6E9U1UDaH1PT9fNtrPkAY6jGdTSUGUApLOMtMSvLJQbNMsz59nerYUz5/R2/bYDUGGYPn36mPHjD/yFCD5oOwvt2RuNeSKxbqXtLHmC42gG1cc7XQDpHJiYH2u5RbmoZaSyPHOe1Z8EPM8xIc6dj4iqZvUHqSxK9+NVnjBLaSsrKysOhSbfAWCB7Sy0Z7sa8wuTyfUrbGfJIxxHM6s0zcenewOpFaoQYXs+Ig7EZLdeFrkuUtmsFyQi4kyfPn2M7Rw+SPfGG76pUFqGGvNJt4vgw7az0J6pqlGVjyWT69tsZ8kzHEczK91lQnnRnAPZ3as7SIxIVvvXrDbnxqiXzXpBEwpNSecEuLyQSHQZpPfGwjcVSsOsoqKiSatF5FTbSWjPhhpzXNTd3dVqO0u+2bVGmuNo5qTbxOZJc66B6yGyRdRktX/NanOuqpw5HwXXLQ7qIU7pfCTLNxUapllFkUjpKkBOs52E9kxVjYhe3N29rsV2ljzGcTRzAjlzLul/XbSLSHZXfnBZS14ZDOpPvXxToUwLRSIlt4ngDNtBaM9UVQG9JJFYf5PtLHmO42jmBHLmXIGg9hC+U3WyeghklmfOJS++gXOV60q6e9nmi3S29eKbCu1NKBKpvFVEPmI7CO3ZUGMulyST639uO0sAcBzNnMA15/Oa2ktEhFtyjJhm9b9xlncASaV70wq9RegA2wl8ks6MDwcX2pNQNBq7RUTOsh2E9kxVVRWXJpNdN9rOEhAcRzMn3eUfOb+V4uGTU0HtH7LCGBPk5jzE5nwUHMccZDuDT9J5U9nPtxSU79xIpHIlgI/aDkJ7pqoqopd1d6/7qe0sAcJxNHMCN3MOb0xQ+4fsEMlq/5rl5nwbm/NRUHUOtJ3BJ+m8qbzXtxSUz9xIJLZCRM62HYT2bKgxl08kEut/YjtLwHAczZx90nx8zjfnGjJB7R+yI8vNeVY/2uru7t4RjcY8ADwpdEQ0qC+udNZKvi8ajUki0aWZKByNxsYivfWXWzNVmzLGjUZjbQDOtR2E9mxojTkuTyS6brCdJYDSGkfr453S0lCVkbGsPt6Z9jiaqdo+mZXm43O+OYfBQdmejg0SgdmazXrZ/k+lALZkuWaQHGo7gE/SmfGZBOCIDNZeB+DVYf56KoN1KTOcSKSyBcB5toPQnu1qzD+ZTK673scyUhfvuKi2dlUhTgBxHM2cqjQfn/PNuYgcYjtDPhvsG9yczXpZ/zlKFVn9AoNERN5jO4NP0j16+vhMFI1GY8cBiKbxlA7OmucUJxKJ3SQi59sOQnunqp9OJtf92McSUte89gaB/Kw0dtBNaGoqtHlCK+Nofbwz7XE0l2fN6+Od+wEoS+MpL7c0VGV1m72RCWz/kBUv7iwKdnMOKJvzEVLN6ExHLnkszcd/LEN1L0rz8WszVJdGz4lGK38ugkW2g9CwfLq7e/3/+Hh9qWvu+KmIcwkAiOCCRVNqfl5gDTrH0cxYmubj7/ElRcYpm/MRUsXOtU01fdmsmfWBS4Qz5yMlgvFlZccH8Y7rhwC8lsbjPxCNxk4aTcFoNDYZQLozrmtHU5MyxolEKn8GSJ3tILR3qvqZRKLrh74VaGpy6uNrbxSRtzSJDqSubvL8nwIQ32rnlrTH0fp456jG0fp4Z6DG0fqR7zANAAAgAElEQVR45+EAlqT5tLv8yJJxItNtR8hf2Z9UtrCsRV7Kds0gKSpyA/fTbyLR1Q/g7jSf9p1oNDai799oNBYCcCuAyWk87U8A/jiSepRREonEfioiF9oOQntnjGlMJtf9wLcCTU1O/ZR5PwOcC3f3xyL4WF3z2htQAA16S0PViMbR+njniMbR+nhnoMbR+njnPgBWAihJ42k7AazxJ1HmnPaduyYIwH3OR0ggL2a7po015y9ku2awOMfaTuCT29N8/HsBfD8ajaUzkL7h2wA+kOZzvs/15tZJJFL5E5GMfRxPPjIGi7u718d9K9DU5NRNrrnxnRrzN4g4l9Q3d/wYBdCgY4TjaH28M2vjaC6uN6+Pdx4E4EEAsTSf+kBLQ1XO3ww6qWjyDNsZ8pkC/8h2zaw3546T/S8yWJx0brzJJw8g/RuaPgngsWg0NnM4D45GYwdHo7EbAFyZZp1tAFrSfA5lloTDsetF5GLbQWjvVHVpd3dXs28FmpqcRVNqfi4i9cN6vMildc0d/s3g544Rj6P18c5hjaP18c6D6+OdgRhH6+Od4+vjnVcDeBrACSO4RF4saRFXg9o3ZIVAsz6pnPUjfFXxghTC/IV/AvkiSyS6+qLR2K0APp7mU8sB/C4ajV0HYAOAJIDn35jljkZjpQCmAzgTwFVI/1hmALgpkejK6h6n9BYSiVT+SCTt7w2yQNVckUyuX+ZbgaYmp27y/JsE6d0MLCKfrI93pFoaqhv9imZbS0NVX328c8TjaH288y3j6Buz3PXxzoyMoy0NVX6Oo0fXxzv3NvM9DkPLOw4BULPrV/EI621DntwMqpAo266RszFznvXmHPD+zjOIRk4VYQx9PJtzHw1mwGcBnALg8DSfVwLgC2/6/1ui0djTGBqA3zXKTK8A+Noor0EjJ9Fo7IcALrMdhPbOGL2qu3v9db4VaGpy6ifXtELSvglxF2moj3cMtjRUpzvrm08yNo7WxzvzaRz98q5f2fLVloaqf2ax3siJRgtjVZc/VPXv2a5p44bQZ7JdM0hEMD4SOeFI2zn8kEh0vQpgIQAzyktNBjAbo39DAYBPJBJdr2TgOjQC0f/f3p2HR1We/x//3GeGQMIaXMBq3YpVG5gZfygqiQkRUKEVrTZawYRu1tZqAlirtrVNW+suEFrr1m9tCFAb1LoVF6xJMAHBYmcSUlxQUZHKIosCIcnMuX9/BKttBQLk5J4583ldl1fbP3rOu0UPNyfPeZ5I3m8BfN+6gzpDf9TY2HCHV1cvKqoOlGQXVuGA97WXq0tm1t3SNVXJp7I0Pymfo5Wl+X56jr4CwLvvKbpQUVF1AB0v9Wg/KbC6u+/Z7cN5Y+Pi9arY3t339ZdgrnWBV6LR+gYkz5vqedFo/SPWEekqHM79DTrWw1KSU8V10WjD7V5dv6ioOpCZN2i2iEzsiuuJI9dOrqi7sSuulYwqS/OT6jlaWZrvp+foDgCTKkvz26xDOqPnyMFhEdmfZUj0MVff6u5bGh3QoKtt7usXzhnWBR77NTqOg7b0IjgYmgmH8ypE5ErrDto7VVwfi9Xf6tX1i4qqA5lnDK7qqsH830R+UlJR9/MuvWZy4XO06yk6BvOXrUM6y3HU7/OCtxRu64cb3unu2xoN59LtfwrxExF//8MWjdbHAZwPYJFRQgOAs6PR+n050IO6SCiUO0MEpdYdtHeuqz+Jxeo9WyJSVFQdyMobPEeAS7y4voiUF1fU/cSLa1urLM1PiudoZWm+X56jcXQsz3nUOmRfCODrecFzou/NL7+o239KYvXm/HWb+/qFDPHpSaH/Fo3WbwQwFsDvu/nWtQDGcXcWG+Fw3p2OI1OsO2jvVHFDY2PDTV5dv+ON+aC5EHzdq3sAgCNyY3FF7Y+8vIeVXR8smj1HPd6dpTutBzC6sjT/PuuQfaUiHM4PhMprFrc1Gc5FdKXFff2kR4+M0dYNXotG69sAfBdAGTreWnipHR07FYyNRuv3dZ9g6gLh8Mg7RDDNuoP2TlV/HovVe7Zme1R5TTAzb9A8gVzs1T0+zRHn1pKKWl/+vbdrbXS3P0crS/P98hx9EcDJlaX5Vj+B2G+TptcN48mgB0pNTrQ1Gc5dV5Ly+N7UIl+2LugO0Wi9RqP1swCcAGCeR7f5B4BTotH6m3ctqaFuFgrl3ibiXG3dQZ3yi1iswbOPDUeV1wSPGhiYJyIXeXWPzyLi3FlSUefLPdArS/O1sjS/W56jlaX5N+9aUpPq/g7gPAC5laX571rH7I9AEOOtG1Kdqs28ajKc79ixg8P5AVLVs5FGG8ZHo/VvRKP1kwCcBGABumaf96fQsR/w8Gi0PtYF16P9EA7n3eI4co11B+2dqv4qGq0v9+r6o8prgkdmB/4EoMire+yJiMwsmbnItx8iV5bmv1FZmu/Zc7SyND/Vn6ObADwC4BwAIypL8x+vLM0/0C0pzQiQFi/xPKUJk3nVbFf6SCRvA4CDre7vD/G8aPRF66/xTUQieYei4wE6Hh2/MQzoxH9tM4B6AC8AeCIarffkH7pIJO8wAPvydXdJNFr/Jy9akl0kknsTINdbd9Deqbo3xmKLb/Dq+qPKa4JHZTsPQuRCr+7Ree4VlaWj7rau8NrkWYsO+DlaWZrvyXN08qxF+/oc7aydADYC+GDXXxsBvASgBkBTKg/jn3b+jJoB/QLORoGkzUs8L7S27Dz8wWvPWtvd9zUbzsPhvOdE4Pt1015SxW2xWP211h3WIpG8IIAj0LG2btCuvwYA2IqOh+8mAO8DeC0arffFg9cPQqG8Gx0Hvtwpw3/0pmi0wbNfq+HfvbdHztATHhTIBV7dY18ooKL6vcqygpT7AHB/TZ61qNPPUb8MsH5WUlE3UUTmWnekNMWGyrJ8kzX7QYubdnCjgMPh/ACI6MUArkPX/GgyZe1aJ74aBqd40f4Jh3N/KcLBPBWo6i2xmLeD+dChJ1ajY9u/pCCAqMg9JRWL3Nll+d2904mJXevEV4PPUV8QeLvLUTpQgdkyLaOtFAEAUcN7+4QcNXTo6adbVxDti0gkr1xEPFseQV2n46dzDZ4tO0rGwfxjAggE9xXPrL3MuoVoX0y8+clshZxt3ZHyVM3mVLPhXJXDeVcIBBxPDucg8kI4nPszAH4+ldFH9A4vl83tWsryEJJwMP+YACKOc+/kirrvWrcQdVYwq9+FIsiw7kh1rtjNqWbDeWPj4pWq2GZ1fx8pgunyJKLOCYfzfioiv7DuoL1Tde+MRhs820GnqLw6I2foCQ8JZIJX9+gq/17iMrPucusWos7RidYFfuAqllnd23JZSwLQvxve3xdEZFAoNPI86w6iPQmFcn8sgl9Zd9DeqeqMWGzxD726flF5dUZW9qCUGMw/JoDAkbsnz6r9vnUL0Z5MrKg7DiKjrDtSnmLTvLICs9PsLYdzALLU9v7+4DjO96wbiHYnHM67znHk19Yd1BluRSzW4NlJmUXl1RmZ2YMfhsi5Xt3DKwKIwrmrZGbtFdYtRLvTQ3C5GO7E5yNmb80B8+EcHM67gKqOzsk5fYh1B9F/i0RG/kgEN1t30N6p6m+i0cVTvLp+UXl1RtbAQY+I4Cte3cNru9ag3+Xng4oodY2btaCnAt+w7vADhZrOp6bDeSLRvtjy/n4hIhIMCt+eU1KJRHKvAZxbrTto71T1rlisodSr64+btaBnZvagvwDiixMLxcFvSipqr7LuIPq0gzXrIoEcZN3hB66q6QGPpsP5ihVL16mqydGofiMilx177PD+1h1EABAO510NyG3WHdQpd8diDZ69CR43a0HPQ9D7LyIy3qt7WBBxZpVU1JVZdxB9TOB49q1IOlHVuLS3mr48tl7WAgB11gH+IP369s3kx0pkLhzOnSqCO6w7aO9U9d5otP4HXl1/3KwFPQ/VPo8KZJxX97AkIjNLKmo9W6NP1FnFFXXjRRCy7vADAf5edc3Z2y0bzIdz15VF1g3+oVOOPvroXtYVlL5CobwyEZlu3UF757q4PxZr+D48OmF4VHlNr0O1z6MQnOPF9ZOFiHNncUUdT7slUwJ4diZBulG1f2lsPpy3tWmtdYNfiMigfv0+9y3rDkpP4fDIqxwHM607aO9U9f8aG+svh4eD+ZHZzmN+H8w/5ojcOLmi7kbrDkpPk2Y8nysi+dYdfuGKW2vdYD6cv/pqw1pVXWHd4ReO4/z0c58bnmXdQeklEsn7gYgzy7qD9k4VD8RiDZfB48FcRM7y4vpJS+QnJRWL7rTOoPQTcAI3WTf4hmpra2ID35x30GesC3zksIMP7sWPlKjbhEIjrwDwW+sO6gytjMXqvwOPBvOi6dWZRw4MPJF2g/kuIphWUlF3F7jPNHWTjrXmfGveVVTkhfnTLmqx7kiS4RzPWgf4iYj8aNiwvGzrDvK/cDj3eyLCwTwFqKIqGm34FgDXi+sXTa/OzAwOflyAMV5cP1WIyBUlFYsqi4qqA9Yt5HsiInxr3pXc5JhHk2I437p17SJAzf+k4hciGCCiP7PuIH+LRPK+C+B3IsK3hElOVefGYvXfgIeDeVZg8BPpPph/TATFWWcMfmjcrAU9rVvIv4pnLJosQNi6w08Srj5t3QAkyXC+evXqnQAWWnf4iePIlcOGnT7MuoP8KRTK/Y6q3sPBPCX8KRZrmAyPBvNzy5/IygwOehKC0V5cP4Wdfwj6PFl8+zO9rUPIf86fUTNAAuAhb11IgbfnTitosu4AkmQ4BwDXxePWDT4TdBznLusI8p9QKPfbIriPg3nyU9U/R6P1xQASXlz/3PInsrKz+z0pkDO9uH6qE2CMk9HruYk3P8llhtSl+jvOjQIcat3hK5o8c2gSDefxJ1XVkzc76UpEzgiHRxZbd5B/hMO5F4jgfg7mKWF+LNZwKTwczAcO7P9XESn04vq+IXJaj6y+zxdNf3qgdQr5Q8msupMA4aGDXc1NcDj/bytWLF0ngqXWHX4jIjOGDj11kHUHpb6cnFMG8415alDVh6PR+okA4l5cv/j2Z3pnZ/dfAGCUF9f3HZFIViDzbxzQ6UAN/+69PUTxB0jyzG/+oFubV75mvoXix5LqF1dVH7Ju8B85KBgM3mddQSlPgsGMSkAOsg6hPVPFo7HYzkvg4WAuGb0WiKDAi+v7lkgkM5D53KRZC/pZp1Dqysk5/gaIRKw7/MYFHlt+3+Xt1h0fS6rhPJFon6+qnuy/m95kQiiUO9m6glJXKJR7fbruXZ1a9PFYrOUiYLknv8l8MphzX+X9ISInBbT3o0Xl1RnWLZR6iqfXnAzI9dYdfqQJqbZu+LSkGs5XrHjpXRG8aN3hR44jFZHIaUdbd1DqGTYsb4zjyC+tO2jPVPFke/uWIq8G86Lymj5Oz15PcTA/MCJSmJk9qAo8qIj2QfHtz/SWgDNbRILWLb6jumXlypVJsb/5x5JqON8lqf704iP9gcD8nJwcvrGhTguFRhwTCOiDAHigSlLTBfH45gubm5vbvLh6UXlNn8zswFOAnOHF9dONiFw0eVbd7dYdlDokI/NuETnRusOPFPKXZFrSAiThcN7e3vYgPNpdgOTkYHDAdOsKSg1DhpzaT6TH41xnntxU8fS2besu8HIwzxoYeFoEeV5cP33J1SUz6y63rqDkVzyz9jIRcOc1j6irc6wb/lvSDefNzS+9D2hS/XjBT0TkB+Fw7sXWHZT0gr1796gWkaHWIbR7qvrs1q1rvrpq1apWL64/4dbH+mYNDDwNINeL66c9wW8nz6rjtxy0WyWz6k5yHJll3eFf+m7V1ppa64r/lnTDOQC4rs62bvAzETyQkzPyFOsOSl7hcN59IjjbuoP26LmtW987b9cJy11uwq2P9R3QawAHcw+JSFBV5k+e/nyOdQsln0tnLDqs42Ac6WXd4leqmIvy8qQ7Yycph/NNm/QxQD+07vAvyezRw3ls6NBTPm9dQsknHM69WQTftO6g3VPVmo0bExO8GswnzVrQb0DmgGdEZKQX16dPiKCfBoN/vWTmczyPgv6taHp1phPQx0XkCOsWP1MXSfkyOCmH8zVrlrQAMte6w+cOCwYznsjJyeljHULJIxzOu1ZErrPuoD2q27Bh51c6npNdb9KsBf2C2vsZgZzuxfXpfwlwVA/JeKxoenWmdQslBckKDKoSyMnWIX6mqourphastO74LEk5nHdweXCO5yQcDA547Oijj+aPzAihUF6ZCG6x7qDdU9UXXPfDL69du3yHF9efNGtBv4D2eRYip3lxfdo9EZyaGRw0B+XlSfz7MnWHkopFd0HkQuuONJC0c2bSPgSi0cVRQF+y7vA7ETmzf//DqwFw79Q0Fg6PvMpxMNO6g3ZPFQ3x+JbxjY2N2724ftEtC/sH0HuhCE714vq0dwK5oGRgYYV1B9kpmVl3iwi+b93he6pbWhLrknbr7qQdzgHAdZP3TzV+IiLnRiJ5s5Hkfz+QNyKR3GtEHO4GkNR0yc6dOq65uXmbF1cvumVh/8ysjGcFMsKL61PnCeTKkll111p3UPcrmVn7Y3GEv/bdQAVz5k+7yJOlgV0hqYexTZvcuYB+YN2RJi6JRPLmgG/Q00o4nPtLQG6z7qDdU8XSbdvi57z6asNHXlz//Bk1A7IyMxZyME8mcnPxjEXfsK6g7jN5Vt1PxXF+bd2RDhRQtLf/xrpjT5J6OF+zZkmLqt5t3ZFGLolEch8aMmRIT+sQ8pwTDufeIyI3WIfQnujfP/qo5exVq5Z6snvV+TNqBvQLOAshwq1Vk4gAIgH9/eSKuousW8h7JTPrbgHkV9Yd6UJUn5x99ZjXrDv2JKmHcwCIx9vvUlVPTr6jzyLn9ekz6IlQKNTbuoS88bnPDc+KRHIfERGeTpjEVPEysH3sm28u3+rVPfoHnMe5I0RyEkgAInOKZ9Wea91CHikvd0oq6u7iUpbulXDdpD8pPemH844TQzHPuiO9yFiRvi8cf3zu56xLqGudeOLwww49NHMRIOdZt9DuqWo0Hk+MjUajW7y8T8LVXwHqyV7p1CV6OCrzL62oOcc6hLrWueVPZE0eeObDInKFdUt60ZfnTC2sta7Ym6QfzgHATYE/5fiNiJzUqxeWRSIjI9Yt1DVyckaekpHR6yUAw61baI8aW1vbxzQ3L9nk9Y3mTBm1MKHuV6Ha6vW9aD+J9HQQeOzSmYu4tZ5PXDpj0WEDs/svAnC+dUu6SQApMU+mxHDe1LSkCdCF1h3pRkQOV3VeCIfzvmrdQgcmFMqdHAw6i0TkcOsW2j1VXbFjR8voV15Z1m0fws8pK3w64cqFquDywSQlggzH0T+XVNRNtm6hAzO54vnhgYAuhfAlSXdT1fdWrnglabdP/LSUGM4Bvj23IoI+IngkEsm9HdzJJeUcffTRvUKhvPscR/4oAh42ldz+qaqjX3tt+cbuvvGcqfl/FdUiAO3dfW/qnF1r0B8onllbat1C+6dkZt3lQKABkM9bt6QlwW+W33d5SjzjxDpgH0g4nNsoIkOtQ9KVqr7Q1rbz4pUrl//LuoX2LhTKPd5x8GdAwtYttGeq+ko83la46xsbM8Uz6i4QB38WEf5BPImpYvrszc9fg/Jy17qF9u7c8ieysrP73yOCYuuWtKX4qH3Hh0fNu/4rm61TOiNl3pwDUFUtt45IZyJyRs+emY2h0EiufUxy4XDu9xwHL3MwTwmvt7XtPNN6MAeAqqkFjwgwSaEJ6xbaPRFMK8kufGTCrY/1tW6hPSuZvmhE9sD+/+BgbkwxI1UGcyC13pwDHW/PXxYRfqRoTBVVH33UcpWX27zRvjv++NzP9eol94ngy9Yt1Bn6hqpbEIstec+65NMunVU3KaAyG5JSL3DSjqquRLz9/GTfszkdDf/uvT1yco6/ASI/FkjAuietqW7Z6rrHPDq10NPdr7pSqj14VVV+Zh1BgAiK+/bNbAqFcidYt1CHcDjvW5mZ8k8O5qlBFW/F422FyTaYA8Cc0oK5rotvK6DWLbR7InKiBDP+PnlG7SXWLfSJyRXPD8/JOWGpiHMDB/MkILgzlQZzIPXenAMAIpHcZQBPtEse+lh7u5Q2N9e/Y12SjoYNO/0Ex3HuEpEzrVuos/Tt1lYtWLly8dvWJXtSPLP2MnGceyVFf69IJ6r6hy07t0x5/NrzPrJuSVdFtyzsn5mVcaOoXMGfOiUHhX6wpWXLMan2z0VKPnDD4dPPFgk8bd1Bn1DFdgA3bt26Zubq1at5qEk3CIVCvUX6/lQEVwPSw7qHOkcV76q2FTQ2LnvLuqUzSmbWXiGOc5d1B3WC6uqE634zFQ5Z8Rkprqi91BG5DZDB1jH0CVfda6vKRt1m3bGvUnI4B4BwOK9eBLnWHfSfOgYP/LSxsX4OAO4k4A0nFMr9puPIrwAcZh1Dnaeq7yUSWrBixeI3rFv2xeSZtVPhONzONgUooFD3/1oSO6+dP+0czw+ySneXzqwdGxC5DfwWLukosH7zpq3HPFF+7g7rln2VssN5KDTyTMdx/mbdQbujMdeVGxob65+wLvGTcPj0rwCBm0QwzLqF9tm/VNtGxWLLUvLjvZKKuutE5GbrDuokxQZX9fqqLTUPcMvFrlcyfdEIBPRXInKWdQvthutOq5wyaoZ1xv5I2eEcACKR3L8CMt66g/ZEY4D8Ohqtfxh8k77fhg3LHRcI4Bf81iI1qeo613VHNTUtecW65UCUVNSVi8jPrTuo8xSIIZH44eyphc9Zt/hB8aznCxwN/AQiY61baA8Ub66XbV96qnR8q3XK/kjp4XzXIStNXG+b/FT1VRGZ7rofzm1sbNxu3ZMiAuFw7oUiuAaQk61jaL9tUNXCWKyh2TqkK5TMrLtFHLnWuoP2jSrqVOI/ryo9s866JdUUFVUHeuYOPj/gYCrA5bSpIJFIfHXO1MJHrTv2V0oP5wAQDufdKYJp1h3UOarYAugD8bj7u+bmJause5LRsccO79+nT+Y3RFAmgmOse+hA6AeJhFvY1LSkybqkK02eWTcDjkyx7qD9oS+oyp2zy/IfB7fK3KOiWQsOyXSzLoPI90XkCOse6iTF3yrL8sdYZxyIlB/Ojz12eP9+/TJfB3CIdQt1nqoqgFoRnd3SIg+/+mpDSm1z5IWcnJGnBIP4noh8HZAs6x46MKrYDCRGx2JL/mHd4oXJFXV3Q+R71h20fxR4TYG7d8Z3zOaHo5/oODzoxPEQLYHKV0SQYd1EnafQhKobqSorXGHdciBSfjgHgEhk5GWAc591B+0v3QHgUdfFnzdtcheuWbOkxbqou5x44sijevSQiY4jlwL4knUPdZmt8biOWbGi4e/WIR6Skoq6B0RksnUIHQDVVgUeduFWrdmM52rLC+PWSd2tqKg60OuMg/McDRSp4OsCOci6ifaT6l2VZQVXWmccKF8M5wCccDj37yJyknUIHSjdoYpnVOXRnTtbFrz22vKN1kVdLRwe8UXVHhMcR76qqqeLiF/+OSQAgH7ouomzGhtfXGpd4rWioupA5hmD5grkYusWOnCqulGAhyD4y3psr0vVj+k6o6i8pk/P/hjjOM75EHyFA7kPKDbtSOw4zg8/CfLNUBAK5Z7hOLLIuoO6jqqqCBpV5W+uq39z3S2Lmpubt1l37avjj8/tm5GBMxxHRgM6XkROsG4ib6hiWyKROHvFiiWLrVu6y6jymuCR2c5DInKedQt1HYVug2KhQp5VjdfMmXLmq9ZNB6KovDoja8Cg0wAZDQejAYwAwM0kfERdXDV7Sv5vrTu6gm+GcwAIh/Nmi6DYuoM8kwDQDOgyQJe1tzvLmptb/gksb7cO+7SOpSo4BZARjoO8XdsfBq27yGu6I5HQcU1Ni9PuJUFReXVGVvbgxyA4x7qFvKLvq2KRAC+5knhpa8tHLyftkejl5c7E7MIvOIIRAWCEqpwq0AhEelqnkVf05R0vrBsxf/5FCeuSruCr4fyEE0Yc1LNnj3+KyKHWLdRdtB2QVQCaVfWfriuvqiZWO477TmPj0rXwbm915/jjcwdnZLjHOY5zIiAniuiJqgjz7790pC2uq19pbFz8vHWJlaLp1ZlZwcELAIyybqFuoHAVeAvASoi7UhQrXXHfbE/I2+9vxZruWLtefPszh7o9eh4lcI4MCL4IaI4CXwLkBBFken1/Sg6qGo+77inzphZGrVu6iq+GcwAIh3MvFpEHrTsoGWi7Kt4D8D4gG0X0A1X5QFU/cBzsUMVOEd2pKi2AtKm6AREJiCDouhIQ0SxABgAYAGh/AAMBOVxEjwDkcPBtOAFQRSvgTojFFj9r3WKtqLymT1a2sxAip1m3kCGFq9C1AlmnohuhskFUN6pgK1S2A+52VWeHiLaIQFVcVxOOK46qQHpA0QuCXq5qLxHJEki2Qg8GcBAgB0FwqECPBKSX9f9UsqfATbNL839i3dGVfDecA0AkkvsowPWPROQtVW0T0Qui0cV/tW5JFufPqBnQz3Ge5wf6ROQ9fWU9tkf89vGyYx3ghZYWXAFgq3UHEflaXMS9mIP5f3p0auGW9nb3LAV8cSIqESUnBTSeSHzHb4M54NPh/NVXG9a6rv7QuoOIfCsBYGI0uiRlj4f20p9+WLjRTWCsQnkKMBF5RO+aO/XMBusKL/hyOAeAxsaG36tqjXUHEfmLqrqJBEqi0fr51i3JbM7U/H9B20ar4h3rFiLyF1W807LJvd66wyu+Hc4BQCTxLXB5CxF1kY699/XbTU3186xbUsHssrHvxKFjAH3fuoWIfELhAu435pcXpty5J53l6+E8Gn1xteu637PuICLf+H40uviP1hGpZF5ZweuuumMV+oF1CxGlPhfurbPLRvl6ZYSvh3MAaGxc/KCq/tG6g4hSm6pbGos13GvdkYqqygpXiCbOVsWH1i1ElLoUuuzdzfoz6w6v+X44B4B4fMtVAF637iCiVKU/isUW/8a6IpVVlp25HEh8GQU1NXMAABN7SURBVMAO6xYiSkGKjwTxid1xwJW1tBjOm5ubt8XjOrHjNEkios5T1Z9Fow23W3f4weyywvqE654PVd9tfUZE3nLh/qCydPQb1h3dIS2GcwBYsaLh7wB8dYIUEXlNb4rFGn5lXeEnc6aMWqiQi1XV92+/iKiLqM6tKhtVZZ3RXdJmOAeAaLThDkAXWncQUfJT1RnRaAP/QO+B2WX5jwGY3LHrAhHRHijejMv2K6wzulNaDecAdMeOnRMBfds6hIiSl6reE4s1TLPu8LPZZQXzAP2+dQcRJbUdqvjq3NLxafUxeboN53jtteUbXTdxAaAt1i1ElIy0MhZrSKu3NFYqywru42nORLQ7ria+PXtKfqN1R3dLu+EcABobX3xZVS+37iCipDM/Gm34NgC1DkkXVVMK7lTVX1h3EFFyUdU7qsoKH7TusJCWwzkAxGKLqwC3wrqDiJKDKv4ajbZMApCwbkk3s8sKyl3FDOsOIkoSir+11K+7zjrDilgHGAtGInnPASiwDiEiO6pas3Xre+NXr16907olnZVU1N4v4nzHuoOIDKmu1u3tJ8/+8Zi0PVU4bd+c7xLftm17kSretQ4hIhuqWBqPb5nAwdze7M21l0ORlj/GJiJAFS3trvvVdB7MASBgHWBt06b3dxx22BE1qpgkIj2te4io+6jqCteVMStWLE+rnQCSVm2tBo887fFDDjnkJBF80TqHiLqRwoUkJs2ZUvi8dYq1dH9zDgCIRhdHAbcIAA/FIEoTqnirrW3nWU1N9ZutW+gTy++7vP2dzYkiVV1k3UJE3UjdH84uLXzIOiMZcDjfJRZb8owquIMLURpQ1XXxeOKslSuX/8u6hf5XbXnhzpaWtglQjVq3EJH3VLWicsoofhS+C4fzT4nF6v+gqr+07iAiL+mHgDuuuXnJKusS2r35143d2qbt56jiDesWIvKOQh+ZvbmGh759Srrv1vKZwuHcB0TkG9YdRNS1VNEK6LhYrKHGuoU6Z/Ksv30BGmyAyCDrFiLqWgpd8s4m98za8kJ+kP8pfHP+GWKxnd8FdKF1BxF1HVV1Vd1JHMxTS2Xp6DfaXfccVfCjXSI/UX0d29rP5WD+vzicf6bl7S0tuFAVy6xLiKjLXNHYuPhh6wjad/OmFkZdN3EeVFutW4jowKnqe24bzk73LRN3h8P5brz6asNHrotzlB8kEaU8Vf1ZLNZwr3UH7b85UwtrXRcTFcoTXIlSmeo6xNvPrLqm4C3rlGTFNed78cUvDj84KyuzDsCXrFuIaN+p6l2xWMOV1h3UNYpn1l7mOM591h1EtO8U+oGqO6qqrHCFdUsy45vzvXjtteUb29tbRwN43bqFiPaNqv45Fmsote6grlM1ZdT9rupPrTuIaB+pbnETchYH873jcN4Jzc0vvR+Pt45W1dXWLUTUOap4JhbbWQzAtW6hrlVVVvBrV8E9kYlShEK3xcUdN2dq/svWLamAw3knrVjx0ruq7WeqYo11CxHt1eING1ouAJa3W4eQN6rK8q8G3D9adxDRXu0QF1+eW1r4onVIquBwvg8aG5e95boo4Bt0ouTV8RH3ti+vXbt8h3ULeUp3vLD+Owp9xDqEiHZD8RFcHVc5pWCRdUoq4XC+j5qa6t8E3DxVfcW6hYj+k6q+sn37jrOi0egW6xby3vz5FyVaNq27BIqnrVuI6L8oNsXVHc3BfN9xt5b9NGTISYf07p31rIhErFuICFDFm0AiPxZb8p51C3WvounVmZmBwU+JoMC6hYgAQN931R3Ljz/3D4fzAxCJRAao9n5KRE6zbiFKb/p2a6sWrFy5+G3rErJRVF7TJzPbeUZERlq3EKUzVbwTh46ZV1bAXe72E5e1HIBoNLolHt8yVlWft24hSleqWJNIyJkczNPb/PLCbQnZPk6hPNmZyIrq60DrGRzMDwzfnHeBo48+ulf//kf8SQTnW7cQpRNVfS8ed0c1Ny9ZZd1CyeH8GTUD+jvOsxA5xbqFKJ2o6j/atX3cn6aMWWfdkuo4nHcdJxIZOR1wyqxDiNKBKt5NJNzCFSsWv2HdQsml6JaF/TMzez4jglOtW4jSgaouaNnsXjy/vHCbdYsfcFlL13Gj0cVTVN1SVeWhJ0Se0rddF6M4mNNnmX/d2K0J2XaWqi62biHyO1Xc3VK/bgIH867DN+ceCIVyJzgO/gRIlnULkQ+9Ho+3jl6x4qV3rUMouRXf/kxv6dnrcYGcad1C5DcKqKj+qLKs4A7rFr/hcO6RoUNzTw4E5AkRDLZuIfILVV0Rj7eNbW5+6X3rFkoNo8preh2ZHZgvgq9YtxD5h+5UuMWzSwsfsi7xo4B1gF+tX//u2oEDj3goEMAYETnUuoco1anqi/G4O7a5eekG6xZKHatrK+PBI0976JBDDxkiwDDrHqJUp8B6JHTc7CmFz1q3+BXfnHssFAr1dpx+DwAosm4hSl361Pr1O7+2du3yHdYllLKkpKJuhojwo32i/aSKpUi0Xzh72mge9uYhDufdJBLJvQaQm8GfVhDtE1VUxWL13wIQt26h1De5YtH1ENxk3UGUahS4fwO2XfVU6fhW6xa/43DejYYNyxsTCOiDgBxk3UKUClwXv25srP+pdQf5S8nMmkshgf8TQYZ1C1GyU0Wbqntl1ZRR91u3pAsO593sxBNHHpWR4Twigv9n3UKUxOKquDwWq/+DdQj5U/Gs5wsEwb8IkG3dQpSsVPU91cSFVVPOXGrdkk44nBvYdaLo70TwTesWomSjis2qiaLGxiV/s24hf7vkjpoTemQ4TwhkiHULUbJR1Zp2bb+EJ352Pw7nhkKhkV93HLkXkH7WLURJYmV7e2JCc/OSVdYhlB4m3vxkdrB3v2oBxli3ECUDVY1D9eezt9TegvJyHqpogMO5sVBoxDEiPeaJyGnWLUS2dMG2bfFLVq1a+qF1CaWXoqLqQNYZg6YDUmrdQmRJoW8l4E6cW1r4onVLOuNwnhyCkUjuL1RxnYg41jFE3UlVVUR+GY3W/xIA39KQmZKZNZeKE7gXAE93pvSjeDAu2y6fWzqeL0iMcThPIuFwbiGAKhE53LqFqDuo6ibXxaVNTQ1PWbcQAcCk6XXDggE8DJHjrFuIuoOqbldXrqyamv9H6xbqwLe0SSQWa6iJx90QoPOsW4i8poqlIonhHMwpmcydVtC0o6XtFADzrVuIvKcvuAk3wsE8ufDNeZIKhXInOI7cA+Aw6xairqSqCuDWWKzhBvBgIUpixTNrLxNxKkSQad1C1JVUdTug188uG/VbAGrdQ/+Jw3kSGzYsLzsQ0JmAlFi3EHWRfyUSKGlqqn/OOoSoMybNeu5LQfR4EJBh1i1EXUFVa+Ju+3fmTR3zpnULfTYO5ylg2LDc8Y6D+7gWnVKZqla3trZf8coryz6wbiHaF+NmLeh5qPb5JYAfQrgclFKTQrcJ9EeVpaPuAd+WJzUO5yni2GOH9+/bt9ctAL7LHV0olajqJgBXxGINf7ZuIToQl1bUjXQElTy0iFKP/rW9Lf6DeT8c/bZ1Ce0dh/MUM3Ro7snBIH4HyCnWLUR7o6oPt7XtvGrlyuX/sm4h6grFtz/T2+nR60Z1cJVAAtY9RHukuhqKssopBY9bp1DncThPTU4kkvcdQG8C5CDrGKL/pqrvua7+oKlp8WPWLURemDSz9pSA49wvQNi6heh/qLYq9LaWxPqb50+7qMU6h/YNh/MUdsIJIw7KyMi4WUS/IyL8taRkkFDVe7Zvj/+YJ32S340qrwkeOdC5GoobRKS3dQ8RACj0KTfuls6ZVrjKuoX2Dwc6H8jJGXlKMCjTRSTPuoXSl6q+EI/LVc3N9THrFqLuNGlWzRFBDdwOwdetWyh9KfAaFD+aXZbPn1imOA7nPjJs2MjzHEduEZETrFsonejaREKuaWqq5+FZlNaKZz1f4CDwG267SN1KdR1Ef/H2Jr2/tryQZ0f4AIdz/wlEInnfVsUvRDDYOob8TD8E9Lb161tnrF27fId1DVFSKC93SgYWfgOKX3L7W/KSQrdBcWfLZveO+eWF26x7qOtwOPepUCjUW6TvNADXiEhf6x7yE21XxT3bt+/41apV/9hgXUOUjIqmV2dmBQZPgei1gPS37iH/UNW4AL9v0/byP00Zs866h7oeh3Of++IXhx+cldVrmiqu5JBOByiu6s5Wjd/Y2LjsLesYolRQctNzB2nv4NUOnCsh4DOYDkS7qlaJxG+qLB39hnUMeYfDeZoYNiwv23F0qoiUAuBbHNoXHMqJDlDJTc8dhD4Z00RxFYd02heqaBPoH1td9+YHpxautu4h73E4TzO7ThotBTBFRAZa91Ay0x2qeEC1/U4O5URdo2j60wMzA5lXCeQHEBxi3UNJTLUVwO9b47j1wasL3rXOoe7D4TxNHX98bt+ePXG54+AqQI607qHkoarrAfy2tbX9d6+8suwD6x4iPyqaXp3ZKzB4sgOdBpHjrHsoeSiwWRT3t+7cWfHgtWette6h7sfhnAKRSN4FgE4F5HTrGLKjipdV9e4PP3xvzurVq3da9xClhfJy59L+BRMCjnOFiowR/r6cthR4Da5boe2tlVXXnL3duofs8CFA/xYOnz4CCEwVwdcABK17yHuq2Cmi1a6b+F1j44tLrXuI0tnEirrjgpDvQfBNAbKte6h7KPCcm8DMOVPzF3T8R0p3HM7pf4RCpx4hErwMkG+K4PPWPdT1Ot6Su5WJhM5pbl6yybqHiD7RseTl0K85cCYDKITAsW6irqXAZkDnqrr3VpUVrrDuoeTC4Zz2xAmFTj/LcQLfVtUJIpJhHUQH5F+AznVdrWxsXMzfDIhSwNfvrPt8z6BcqsBkERxv3UP7TwGFai2A37+z2X2ktryQywfpM3E4p04ZMuSkQ3r3ziwWcb4N4EvWPdQ5qroOwF9UdX5j4+I6AAnrJiLaP5Mrnh+uCHwNgq8JZIh1D3WOqr4nwB/b3fY/zJs65k3rHkp+HM5pn0UiIyOqcjEgF4ngWOse+k+qWAPoY67rzm9qWvICANe6iYi61sQZNZEejvM1BS4QkROte+i/KDYA+nDCdf88Z2vdIpSX8zlMncbhnA7I0KG5JweDuBhAESBHWfekqYSqLgZkQSLRvmDFiqWN1kFE1H2Kb687BhkYL8B4QApFkGndlI4U+gEgjyCRqG5ZvKFm/vyL+JNK2i8czqmrSCh02gggeK6IjgcQERH+/eURVX0VQA2AGteVhU1N9Zutm4jIXtH06sxMOXSUBGQ0VEYBOIkflHpHoasEWADgr29vcp+vLS+MWzdR6uPwRJ448cThh2Vk9DxHxBkPYCyA/tZNqUpVVUReUcULqm5NItFe29z80vvWXUSU/IpuWdi/V1aPfFFnFETzBRIG0MO6K2WptipQB2BBHFgwr6zgdesk8h8O59QdgqFQ7ukiUgDoGQBOF5G+1lHJSlXXiWCp62Kpqizbvr3lpTffXL7VuouIUt+o8ppeR2Q7/09ERjiKU1X0VIEcY92VrFTRJoKXVPUFuLpo89aP6p4oP3eHdRf5G4dzshAYNiwvEgjoGao4A5CRIhhsHdXdVLWt4424Noloo+tqowiaYrEl71m3EVH6KLnpuYPczMAwEQmJYBhEQlDkiEhv67Zup7pFgWUieAEuFr29xV3GLQ+pu3E4p6SQk3PK4EAgGBEJRACNAHISoENEJKXXSnYsScG7qlgF4HVVrFLV11038Xpzc/x1YHm7dSMR0f8oL3cmDzzjmIQ6xzmQ40RkiALHATgOiqNFxAenSOu7CvxDXImquNE2V//x4NTC1dZVRBzOKWmFQqHeQNbxjhP8guvqEBF8AcAXAPkCoIdbD+6q+hGAD0SwAcDaji0MZQ3grhFx1rS3J9a0tm54d9WqVa2WnUREXWlUeU3wc33cwyUgRwQkcIQCRzjAEXDkcIUeAeAQURysIv3Fes5QXafAG4C8AegbUPcNqLzRojtfnT/tHJ6OTEmJwzmlpJycnIxAoM+hIs4hAA4F5NP/mi2CXqrSE9CeHf8ePQHpCagLIC6CuKokAMQ//s+AtrmubBfRbYBuB5xtItgGuNtdFx+JyCbXdTe2tTkfBINbNjY3N7dZ/n9ARJTMRpXXBD/fu22g2zNwsMSDB0H0oIA4/eBob3WdPhDtLYI+CvSBSm8AvQANCBBUQVAUQRUEoAiKSEBV2wTSqtBWCHYq0CqQVqhuVegGuM56BTaouOsTqhu2b922nuvDiYiIiIiIiIiIiIiIiIiIiIiIiIiIiIiIiIiIiIiIiIiIiIiIiIiIiIiIiIiIiIiIiIiIiIiIiIiIiIiIiIiIiIiIiIiIiIiIiIiIiIiIiIiIiIiIiIiIiIiIiIiIiIiIiIiIiIiIiIiIiIiIiIiIiIiIiIiIiIiIiIiIiIiIiIiIiIiIiIiIiIiIiIiIiIiIiIiIiIiIiIiIiIiIiIiIiIiIiIiIiIiIiIiIiIiIiIiIiIiIiIiIiIiIiIiIiIiIiIiIiIiIiIiIiIiIiIiIiIiIiIiIiIiIiIiIiIiIiIiIiIiIiIiIiIiIiIiIiIiIiIiIiIiIiIiIiIiIiIiIiIiIiIiIiIiIiIiIiIiIiIiIiIiIiIiIiIiIiIiIiIiIiIiIiIiIiIiIiIiIiIiIiIiIutn/BwA1qSuFojpmAAAAAElFTkSuQmCC;" parent="1" vertex="1">
                        <mxGeometry x="610" y="733.11" width="91" height="53.78" as="geometry"/>
                    </mxCell>
                </UserObject>
                <UserObject label="AWS-MA-IDC" id="FvHIyR7vi8E8eyAL5Enl-13">
                    <mxCell style="verticalLabelPosition=bottom;html=1;verticalAlign=top;align=center;strokeColor=none;fillColor=#00BEF2;shape=mxgraph.azure.git_repository;labelBackgroundColor=none;" parent="1" vertex="1">
                        <mxGeometry x="470" y="740" width="40" height="40" as="geometry"/>
                    </mxCell>
                </UserObject>
                <mxCell id="FvHIyR7vi8E8eyAL5Enl-14" value="triggers" style="edgeStyle=orthogonalEdgeStyle;rounded=0;orthogonalLoop=1;jettySize=auto;html=1;labelBackgroundColor=none;strokeColor=#F89D1C;" parent="1" edge="1">
                    <mxGeometry y="10" relative="1" as="geometry">
                        <mxPoint as="offset"/>
                        <mxPoint x="520" y="759.6100000000001" as="sourcePoint"/>
                        <mxPoint x="610" y="760" as="targetPoint"/>
                        <Array as="points">
                            <mxPoint x="590" y="760"/>
                            <mxPoint x="590" y="760"/>
                        </Array>
                    </mxGeometry>
                </mxCell>
                <mxCell id="FvHIyR7vi8E8eyAL5Enl-15" style="edgeStyle=orthogonalEdgeStyle;rounded=0;orthogonalLoop=1;jettySize=auto;html=1;labelBackgroundColor=none;strokeColor=#F89D1C;" parent="1" source="FvHIyR7vi8E8eyAL5Enl-12" edge="1">
                    <mxGeometry relative="1" as="geometry">
                        <Array as="points">
                            <mxPoint x="680" y="760"/>
                            <mxPoint x="680" y="760"/>
                        </Array>
                        <mxPoint x="802.681818181818" y="760.0000000000002" as="targetPoint"/>
                    </mxGeometry>
                </mxCell>
                <mxCell id="FvHIyR7vi8E8eyAL5Enl-16" value="&lt;span style=&quot;&quot;&gt;provisions&lt;br&gt;PermissionSets &lt;br&gt;and Assignments&lt;br&gt;&lt;/span&gt;" style="edgeStyle=orthogonalEdgeStyle;rounded=0;orthogonalLoop=1;jettySize=auto;html=1;labelBackgroundColor=none;align=right;entryX=0;entryY=0.5;entryDx=0;entryDy=0;entryPerimeter=0;" parent="1" source="FvHIyR7vi8E8eyAL5Enl-10" target="dYAqB-a5sjkmsuOZD6jM-2" edge="1">
                    <mxGeometry x="0.1223" y="10" relative="1" as="geometry">
                        <mxPoint x="879.4269930716846" y="516" as="sourcePoint"/>
                        <mxPoint as="offset"/>
                        <Array as="points">
                            <mxPoint x="1000" y="601"/>
                            <mxPoint x="1000" y="523"/>
                        </Array>
                        <mxPoint x="1103.7792871261877" y="560.6949999999999" as="targetPoint"/>
                    </mxGeometry>
                </mxCell>
                <mxCell id="FvHIyR7vi8E8eyAL5Enl-18" value="TF-State&lt;br&gt;core_idc_terraform.tfstate" style="sketch=0;points=[[0,0,0],[0.25,0,0],[0.5,0,0],[0.75,0,0],[1,0,0],[0,1,0],[0.25,1,0],[0.5,1,0],[0.75,1,0],[1,1,0],[0,0.25,0],[0,0.5,0],[0,0.75,0],[1,0.25,0],[1,0.5,0],[1,0.75,0]];outlineConnect=0;fontColor=#232F3E;gradientColor=#60A337;gradientDirection=north;fillColor=#277116;strokeColor=#ffffff;dashed=0;verticalLabelPosition=bottom;verticalAlign=top;align=center;html=1;fontSize=12;fontStyle=0;aspect=fixed;shape=mxgraph.aws4.resourceIcon;resIcon=mxgraph.aws4.s3;" parent="1" vertex="1">
                    <mxGeometry x="1083.13" y="730" width="50" height="50" as="geometry"/>
                </mxCell>
                <UserObject label="&lt;b style=&quot;border-color: var(--border-color);&quot;&gt;terraform-aws-&lt;br&gt;&lt;/b&gt;&lt;b&gt;idc-mapping&lt;/b&gt;" id="FvHIyR7vi8E8eyAL5Enl-19">
                    <mxCell style="verticalLabelPosition=bottom;html=1;verticalAlign=top;align=center;strokeColor=none;fillColor=#00BEF2;shape=mxgraph.azure.git_repository;labelBackgroundColor=none;" parent="1" vertex="1">
                        <mxGeometry x="300" y="680" width="40" height="40" as="geometry"/>
                    </mxCell>
                </UserObject>
                <mxCell id="FvHIyR7vi8E8eyAL5Enl-22" value="Azure Cloud" style="fillColor=#1ba1e2;dashed=0;verticalAlign=top;fontStyle=1;opacity=50;strokeColor=#006EAF;fontSize=14;fontColor=default;" parent="1" vertex="1">
                    <mxGeometry x="720" y="260" width="520" height="140" as="geometry"/>
                </mxCell>
                <mxCell id="FvHIyR7vi8E8eyAL5Enl-23" value="Azure" style="verticalLabelPosition=bottom;html=1;verticalAlign=top;align=center;strokeColor=none;fillColor=#00BEF2;shape=mxgraph.azure.azure_active_directory;" parent="1" vertex="1">
                    <mxGeometry x="730" y="260" width="47.5" height="50" as="geometry"/>
                </mxCell>
                <mxCell id="FvHIyR7vi8E8eyAL5Enl-24" value="AAD Users and &lt;br&gt;Groups via SCIM" style="edgeStyle=orthogonalEdgeStyle;rounded=0;orthogonalLoop=1;jettySize=auto;html=1;entryX=0;entryY=0.5;entryDx=0;entryDy=0;align=left;labelBackgroundColor=none;" parent="1" source="FvHIyR7vi8E8eyAL5Enl-25" edge="1">
                    <mxGeometry x="-0.0087" y="16" relative="1" as="geometry">
                        <mxPoint x="1103.7599999999998" y="485.07500000000005" as="targetPoint"/>
                        <mxPoint as="offset"/>
                    </mxGeometry>
                </mxCell>
                <mxCell id="FvHIyR7vi8E8eyAL5Enl-25" value="Enterprise Application" style="sketch=0;aspect=fixed;html=1;points=[];align=center;image;fontSize=12;image=img/lib/mscae/Service_Catalog_Managed_Application_Definitions.svg;labelBackgroundColor=none;" parent="1" vertex="1">
                    <mxGeometry x="940" y="310" width="47" height="50" as="geometry"/>
                </mxCell>
                <UserObject label="&lt;b&gt;terraform-aws-acf-idc&lt;/b&gt;" id="FvHIyR7vi8E8eyAL5Enl-26">
                    <mxCell style="verticalLabelPosition=bottom;html=1;verticalAlign=top;align=center;strokeColor=none;fillColor=#00BEF2;shape=mxgraph.azure.git_repository;labelBackgroundColor=none;" parent="1" vertex="1">
                        <mxGeometry x="300" y="820" width="40" height="40" as="geometry"/>
                    </mxCell>
                </UserObject>
                <mxCell id="FvHIyR7vi8E8eyAL5Enl-27" value="ref = main" style="edgeStyle=orthogonalEdgeStyle;rounded=0;orthogonalLoop=1;jettySize=auto;html=1;entryX=1;entryY=0.5;entryDx=0;entryDy=0;entryPerimeter=0;labelBackgroundColor=none;strokeColor=#9933FF;align=left;exitX=0;exitY=0.5;exitDx=0;exitDy=0;exitPerimeter=0;" parent="1" target="FvHIyR7vi8E8eyAL5Enl-26" edge="1">
                    <mxGeometry x="0.3331" y="-10" relative="1" as="geometry">
                        <mxPoint x="480" y="770" as="sourcePoint"/>
                        <mxPoint x="350" y="705" as="targetPoint"/>
                        <mxPoint x="10" y="10" as="offset"/>
                    </mxGeometry>
                </mxCell>
                <UserObject label="&lt;b style=&quot;border-color: var(--border-color);&quot;&gt;&lt;b style=&quot;border-color: var(--border-color);&quot;&gt;terraform-aws-&lt;br&gt;&lt;/b&gt;idc-permission-sets&lt;/b&gt;" id="FvHIyR7vi8E8eyAL5Enl-29">
                    <mxCell style="verticalLabelPosition=bottom;html=1;verticalAlign=top;align=center;strokeColor=none;fillColor=#00BEF2;shape=mxgraph.azure.git_repository;labelBackgroundColor=none;" parent="1" vertex="1">
                        <mxGeometry x="300" y="570" width="40" height="40" as="geometry"/>
                    </mxCell>
                </UserObject>
                <mxCell id="FvHIyR7vi8E8eyAL5Enl-30" value="ref = main" style="edgeStyle=orthogonalEdgeStyle;rounded=0;orthogonalLoop=1;jettySize=auto;html=1;entryX=1;entryY=0.5;entryDx=0;entryDy=0;entryPerimeter=0;labelBackgroundColor=none;strokeColor=#9933FF;align=left;exitX=0.24;exitY=0.24;exitDx=0;exitDy=0;exitPerimeter=0;" parent="1" source="FvHIyR7vi8E8eyAL5Enl-13" target="FvHIyR7vi8E8eyAL5Enl-29" edge="1">
                    <mxGeometry x="0.5159" y="-10" relative="1" as="geometry">
                        <mxPoint x="480" y="770" as="sourcePoint"/>
                        <mxPoint x="350" y="705" as="targetPoint"/>
                        <mxPoint as="offset"/>
                        <Array as="points">
                            <mxPoint x="420" y="750"/>
                            <mxPoint x="420" y="590"/>
                        </Array>
                    </mxGeometry>
                </mxCell>
                <mxCell id="FvHIyR7vi8E8eyAL5Enl-32" style="edgeStyle=orthogonalEdgeStyle;rounded=0;orthogonalLoop=1;jettySize=auto;html=1;entryX=0.5;entryY=0;entryDx=0;entryDy=0;entryPerimeter=0;" parent="1" source="FvHIyR7vi8E8eyAL5Enl-33" target="FvHIyR7vi8E8eyAL5Enl-29" edge="1">
                    <mxGeometry relative="1" as="geometry"/>
                </mxCell>
                <mxCell id="FvHIyR7vi8E8eyAL5Enl-33" value="Security Team" style="shape=umlActor;verticalLabelPosition=bottom;verticalAlign=top;html=1;outlineConnect=0;" parent="1" vertex="1">
                    <mxGeometry x="150" y="460" width="30" height="60" as="geometry"/>
                </mxCell>
                <mxCell id="FvHIyR7vi8E8eyAL5Enl-34" style="edgeStyle=orthogonalEdgeStyle;rounded=0;orthogonalLoop=1;jettySize=auto;html=1;entryX=0.5;entryY=0;entryDx=0;entryDy=0;entryPerimeter=0;" parent="1" source="FvHIyR7vi8E8eyAL5Enl-35" target="FvHIyR7vi8E8eyAL5Enl-19" edge="1">
                    <mxGeometry relative="1" as="geometry">
                        <Array as="points">
                            <mxPoint x="320" y="660"/>
                        </Array>
                    </mxGeometry>
                </mxCell>
                <mxCell id="FvHIyR7vi8E8eyAL5Enl-35" value="Platform Team" style="shape=umlActor;verticalLabelPosition=bottom;verticalAlign=top;html=1;outlineConnect=0;" parent="1" vertex="1">
                    <mxGeometry x="70" y="620" width="30" height="60" as="geometry"/>
                </mxCell>
                <mxCell id="dYAqB-a5sjkmsuOZD6jM-1" value="idc_pipeline_principal" style="sketch=0;outlineConnect=0;fontColor=#232F3E;gradientColor=none;fillColor=#BF0816;strokeColor=none;dashed=0;verticalLabelPosition=bottom;verticalAlign=top;align=center;html=1;fontSize=12;fontStyle=0;aspect=fixed;pointerEvents=1;shape=mxgraph.aws4.role;labelPosition=center;" parent="1" vertex="1">
                    <mxGeometry x="810" y="744" width="56.73" height="32" as="geometry"/>
                </mxCell>
                <mxCell id="dYAqB-a5sjkmsuOZD6jM-2" value="AWS Identity Center" style="sketch=0;points=[[0,0,0],[0.25,0,0],[0.5,0,0],[0.75,0,0],[1,0,0],[0,1,0],[0.25,1,0],[0.5,1,0],[0.75,1,0],[1,1,0],[0,0.25,0],[0,0.5,0],[0,0.75,0],[1,0.25,0],[1,0.5,0],[1,0.75,0]];outlineConnect=0;fontColor=#232F3E;fillColor=#DD344C;strokeColor=#ffffff;dashed=0;verticalLabelPosition=bottom;verticalAlign=top;align=center;html=1;fontSize=12;fontStyle=0;aspect=fixed;shape=mxgraph.aws4.resourceIcon;resIcon=mxgraph.aws4.single_sign_on;" parent="1" vertex="1">
                    <mxGeometry x="1055.13" y="483.88" width="78" height="78" as="geometry"/>
                </mxCell>
            </root>
        </mxGraphModel>
    </diagram>
</mxfile>